<?xml version="1.0" encoding="UTF-8"?>
<svg id="Layer_1" data-name="Layer 1" xmlns="http://www.w3.org/2000/svg" viewBox="0 0 582.03 399.02">
  <defs>
    <style>
      .cls-1, .cls-2 {
        fill: none;
      }

      .cls-1, .cls-2, .cls-3 {
        stroke-linecap: round;
        stroke-linejoin: round;
      }

      .cls-1, .cls-3 {
        stroke: #d1d2cd;
      }

      .cls-4 {
        fill: #d1d2cd;
      }

      .cls-5 {
        fill: #e4a389;
      }

      .cls-5, .cls-6 {
        stroke-miterlimit: 10;
      }

      .cls-5, .cls-2 {
        stroke: #fff;
      }

      .cls-6 {
        fill: #ecb25f;
        stroke: #2a2b28;
      }

      .cls-3 {
        fill: #ead1b4;
      }
    </style>
  </defs>
  <g>
    <path class="cls-4" d="M577.75,395.26c-1.49-.51-2.1.25-2.25.5-.42.69-.17,1.63.63,2.39.75.71,1.7.87,2.64.87.42,0,.83-.03,1.23-.06.25-.02.49-.04.74-.05.99-.04,1.21-.56,1.26-.87.07-.47.18-1.26-4.26-2.78ZM577.23,396.99c-.11-.11-.19-.21-.24-.29.07.01.15.03.24.07.66.23,1.23.45,1.71.65-.69.02-1.31-.06-1.71-.43Z"/>
    <path class="cls-4" d="M573.58,392.83c.12-.25.32-.67.14-1.17-.2-.56-.77-1-2.19-1.67-.74-.35-9.89-3.9-11.01-2.32-.08.11-.44.69.21,1.35,0,0,0,0,0,0,.74.76.69,1.56.6,2.22-.36-.07-.96-.23-1.5-.39-.39-.11-.82-.23-1.3-.36-1.46-.39-2.27-.6-2.59.19-.32.8.38,1.17,2.05,2.07.74.4,1.38.63,1.9.82,1.02.36,1.02.4.99.76-.06.94.48,1.29.71,1.4.17.08.34.11.53.11,1.21,0,2.7-1.42,2.89-1.61.11-.11.17-.15.17-.16.09,0,.35.08.57.15.6.18,1.5.45,3.06.68.92.14,1.66.29,2.23.4,1.31.27,1.98.4,2.45-.15.45-.53.2-1.23.03-1.7-.1-.28-.05-.38.06-.62ZM571.98,393.86c-.19-.04-.41-.08-.62-.12-.59-.12-1.35-.27-2.31-.41-1.45-.22-2.29-.47-2.84-.63-.88-.27-1.46-.44-2.32.4-.47.46-1.04.85-1.41,1.03-.03-.59-.25-.99-.56-1.29.17-.03.31-.09.45-.19.27-.18.45-.48.49-.82l.03-.21c.09-.62.24-1.65-.3-2.72,1.97.33,5.98,1.46,8.26,2.53.79.37,1.14.59,1.29.71-.15.32-.42.89-.17,1.71Z"/>
    <path class="cls-4" d="M551.46,388.85c-1.12-1.24-2.54-1.82-3.51-1.45-.61.23-.99.8-1,1.53-.03,1.75.94,2,1.87,2.24l.46.12c.35.1.69.14.99.14.71,0,1.26-.25,1.55-.72.16-.26.45-.97-.36-1.86ZM549.7,389.75l-.49-.13c-.25-.06-.57-.14-.62-.18,0,0-.05-.1-.08-.54.02,0,.05-.01.08-.01.26,0,.91.23,1.59.95-.13,0-.29-.03-.49-.08Z"/>
    <path class="cls-4" d="M559.42,384.63c-1.5-1.98-4.05-5.75-4.26-6.17l-.72.35.68-.44c-.77-1.6-2.05-4.29-6.96-5.2-3.81-.71-5.75.26-7.17.97-.38.19-.72.36-1.08.49-.27.09-.89.3-1,.89-.05.28.09.66.32.85.72.6,3.43.37,5-.24.68-.27,1.27-.36,1.77-.36,0,.04,0,.08,0,.11.01.81.87,1.92,2.75,2.6,2.51.91,2.68,1.21,2.82,1.81.06.26.11.48.14.69.13.69.25,1.28.75,2.07.07.12.18.28.26.42-.04.02-.08.03-.13.05-.58.22-1.12.42-1.16,1.03-.04.58.45.84.73.99.11.06.23.12.38.21.98.61,2.62,1.37,4.82,1.56.32.03.61.06.86.09.35.04.66.07.94.07.5,0,.87-.11,1.11-.52.39-.69-.18-1.44-.83-2.3ZM557.48,385.71c-1.58-.13-2.81-.61-3.66-1.06.22-.16.4-.37.5-.65.22-.64-.15-1.21-.53-1.81-.34-.53-.41-.9-.53-1.51-.04-.23-.09-.47-.16-.75-.36-1.54-1.45-2.08-3.83-2.94-.34-.12-.61-.25-.84-.38.04-.03.08-.05.11-.08.44-.35.51-.94.18-1.4-.06-.08-.14-.16-.23-.24,3.58.85,4.5,2.77,5.18,4.19l.04.09c.27.57,2.96,4.51,4.43,6.45.05.07.1.13.14.19-.24-.03-.51-.06-.81-.08Z"/>
  </g>
  <g>
    <path class="cls-2" d="M180.88,298.57c-6.14-.73-12.28-1.47-18.43-2.2.1,2.49-.05,5.05-.31,7.53-.63-.38-1.39-.45-2.12-.51-8.51-.74-16.87-2.17-25.37-2.99-4.15-.4-8.37.06-12.07-2.11-7.85-4.6-15.34-10.01-22.97-14.99-4.49-2.93-9.24-5.53-13.64-8.53-.39-.27-2.98-3.59-2.17-3.46-8.64-1.31-17.32-2.37-26.02-3.18-.34-1.44-.77-3.08-.86-4.55-.32.37-.65.75-.97,1.12-1.05-.26-.81-1.79-.6-2.86.46-2.22-.33-4.49-1.11-6.63-1.14-3.13-2.64-6.63-5.79-7.71-1.13-.39-2.57-.55-3.06-1.65-.34-.76-.03-1.68-.3-2.47-.47-1.39-2.27-1.65-3.64-2.16-2.81-1.05-4.49-3.85-6.14-6.36-.67-1.02-1.39-2.04-2.42-2.7-1.18-.76-2.62-.95-3.99-1.22-3.02-.59-6.43-2.16-6.93-5.2-.32-1.97.72-3.9.87-5.89.08-1.08-.1-2.17-.36-3.22-.68-2.64-1.92-5.14-3.63-7.27-.54-.68-1.14-1.33-1.49-2.12-.52-1.16-.47-2.49-.78-3.73-.44-1.75-1.58-3.23-2.42-4.82-.84-1.6-1.36-3.58-.51-5.18.43-.81,1.18-1.45,1.41-2.33.46-1.76-1.27-3.22-2.53-4.54-2.21-2.31-3.36-5.59-3.07-8.78.15-1.64.53-1.81,2.08-1.77.14,0,.29,0,.4-.09.11-.1.12-.26.12-.41.03-1.29.06-2.57.09-3.86.07-2.95-1.98-.35-3.05.27-2.53-2.02-3.44-5.83-2.09-8.78.76-1.66-1.5-3.14-2.47-4.69-3-4.79-1.38-10.95-.6-16.55.2-1.44.34-2.91.02-4.33-.43-1.93-1.65-3.58-2.53-5.35s-1.41-3.96-.44-5.68c.98-1.73,3.2-2.5,4.09-4.27.89-1.77.18-3.96.85-5.83.6-1.68,2.28-2.99,2.28-4.78,0-1.19-.76-2.26-.86-3.44-.12-1.51.85-2.89,1.14-4.38.21-1.07.07-2.17.03-3.26-.1-2.56.39-5.14,1.4-7.5.74-1.72.31-2.79,1.05-4.51,1.37-3.2,3.2-6.17,4.88-9.22,4.56-8.28,8.04-17.16,10.33-26.33.3-1.2.6-2.46,1.39-3.42.79-.96,2.22-1.51,3.3-.9-.08-.9-.83-1.57-1.39-2.28-.57-.71-.97-1.79-.37-2.47.41-.47,1.14-.54,1.55-1.02,1.15-1.33-1.54-3.25-.93-4.89.29-.78,1.29-1.28,1.24-2.11-.04-.66-.73-1.06-1.06-1.64-.24-.42-.28-.91-.31-1.39-.24-3.61-.49-7.23-.73-10.84-.14-2,.29-4.7,2.29-4.88.7-.06,1.37.26,2,.56,3.95,1.94,7.91,3.88,11.86,5.81.78.38,1.58.78,2.12,1.45.54.67.76,1.69.26,2.4-.62.87-2.15,1.13-2.16,2.2-.02,1.24,1.82,1.47,2,2.62.24,1.5-1.72,2.66-3,2.68-.64.01-1.4-.13-1.83.35-.21.23-.28.56-.31.87-.11,1.4.92,3.05,2.31,2.83.42-.07.8-.29,1.15-.52,1.18-.77,3.03-1.83,3.55-3.17.59-1.51-.54-3.24.46-4.81.68-1.07,2.09-1.68,2.38-2.92.44-1.95-2.24-3.55-1.86-5.51.18-.95,1.05-1.62,1.33-2.55.77-2.55-3.14-5.18-1.72-7.43,37.36,13.38,76.26,20.68,115.33,27.6,13.05,2.31,26.14,4.55,39.36,5.51,10.56.77,21.15.72,31.73.67,12.65-.06,25.31-.12,37.96-.18,5.15-.02,10.31.16,15.46.13,3.66-.03,11.44,1.12,13.36-3.09.32-.71.44-1.51.84-2.18.4-.67,1.25-1.19,1.95-.85.66.32.82,1.16.95,1.88.48,2.69,1.52,7.18,5.09,6.43,1.25-.26,2.61-.79,3.74-.21,1.15.59,2.13,2.24,3.27,1.64.54-.29.78-1.01,1.36-1.17.79-.22,1.38.7,2.11,1.06,1.68.84,3.19-1.29,4.67-2.44.21-.16.46-.32.72-.27.35.06.53.43.67.76.62,1.53,1.23,3.05,1.85,4.58-.15-1.15,1.63-1.48,2.63-.9,1,.58,1.89,1.61,3.04,1.51.53-.04,1.12-.32,1.56-.03.51.34.39,1.16.79,1.63.64.76,1.87.05,2.47-.75s1.4-1.79,2.35-1.48c.49.16.79.63,1.16.97,1.45,1.34,3.74.78,5.67.32,1.93-.45,4.48-.4,5.26,1.41-.22,1.64-1.93,2.86-3.4,3.62-1.47.76-3.1,1.22-4.44,2.19-1.1.79-1.94,1.87-2.77,2.94-2.9,3.74-5.8,7.48-8.7,11.22.49.85,1.73.76,2.67.49,2.37-.68,4.62-1.75,6.63-3.16.76-.54,1.97-1.05,2.47-.27.79,1.23-.98,2.52-.52,3.53.6,1.31,3.83.7,4.97.4,2.77-.74,3.5-3.79,6.32-4.33.58-.11,1.27-.08,1.67-.51.34-.37.34-.93.58-1.37.24-.45.7-.73,1.12-1.02,2.37-1.61,4.11-3.99,6.17-5.99,2.06-2,4.76-3.7,7.61-3.4.33,1.37-.65,2.72-1.75,3.6-1.11.87-2.43,1.53-3.27,2.66-.57.77-.98,2.53-.05,3.22,1.06.8,1.75-.43,2.55-.8,1.15-.54,2.71-.22,3.72.48.86.59,1.47,1.46,2.25,2.15,1.87,1.66,4.7,2.16,7.03,1.23,1.36.77,2.19.53,3.39-.47.69-.57,1.16-1.37,1.82-1.97.73-.67,1.66-1.08,2.58-1.48,2.3-1.01,4.6-2.01,6.9-3.02.28-.12.58-.24.87-.14.96.34-.17,2.03.18,2.75.32.68,1.32.82,1.62,1.5.14.3.11.65.14.99.03.33.18.7.49.81.79.26,2.77-1.5,3.57-1.73,2.57-.75,4.84,1.76,6.36,3.97-.06,1.17-1.83,1.11-2.91.66-1.08-.46-2.83-.57-2.94.6-.04.46.25.94.06,1.36-.29.66-1.27.43-1.91.1-2.08-1.08-4.76-2.07-6.6-.63-1,.77-1.48,2.1-2.54,2.77-.89.56-2.05.57-2.89,1.2-.85.64-1.17,1.74-1.63,2.69-.46.96-1.34,1.92-2.39,1.76.04-.6.8-1.91.29-2.42-.43-.44-1.74.11-1.95.57-1.2,2.61-1.58-.59-2.64-.96-.99-.34-.9.89-.84,1.57.17,1.91-.03,3.54-1.35,5.11-.85,1.01-2.04,1.86-2.3,3.16-.16.81.1,1.65.09,2.47-.03,2.77-2.97,4.87-2.98,7.64,0,.43.09.89.41,1.17.69.6,1.75-.07,2.28-.8,1.58-2.19,1.82-5.07,2.98-7.51.43-.9,1.15-1.84,2.14-1.85,2.23-.03.18,6.34-.22,7.45-.48,1.36-1.13,2.74-1.01,4.18.05.65.26,1.28.23,1.93-.07,1.72-1.76,3.16-1.5,4.86.08.53.35,1.02.44,1.55.19,1.08-.36,2.12-.74,3.14-1.11,2.97-.85,6.43.69,9.2.33.59.71,1.15.92,1.79.46,1.39.05,2.9.05,4.37,0,1.98.75,3.87,1.48,5.7.77,1.93,1.66,3.99,3.45,5.04.38.23.81.4,1.26.42.5.02.99-.16,1.44-.38,2.8-1.34,4.74-4.08,5.79-7,1.05-2.92,1.33-6.06,1.6-9.15.22-2.51.42-5.14-.6-7.45-.61-1.37-1.61-2.52-2.35-3.82-1.48-2.6-1.87-5.69-1.83-8.68.03-2.99.46-5.97.46-8.96,0-.87-.02-1.78.34-2.58.7-1.51,2.64-2.22,3.16-3.8.19-.59.52-1.46,1.08-1.2.24.11.33.39.37.65.14.77.08,1.58.33,2.32.26.74,1.01,1.41,1.76,1.19.4-.11.71-.46.88-.84.47-1.05.09-2.25-.09-3.39-.17-1.14.06-2.57,1.14-2.97.45-.17.96-.11,1.41-.26.45-.16.84-.72.56-1.1-.18-.25-.54-.28-.83-.37-1.22-.39-1.49-2.14-.82-3.23.88-1.44,3.06-2.7,4.7-1.9,1,.49,1.79,1.36,2.85,1.71.74.24,1.54.19,2.32.22,1.48.04,2.96.35,4.34.89.26.1.52.22.73.41.26.23.43.58.75.71.5.2,1.07-.21,1.58-.06.71.2.74,1.21.45,1.88-.29.67-.76,1.37-.55,2.08.11.39.42.69.69.99,2.1,2.31,2.73,5.85,1.56,8.74-.35.88-.86,1.72-.97,2.66-.1.9.18,1.88-.25,2.68-.46.87-1.57,1.19-2.2,1.95-.72.87-.59,2.35.32,3.02.91.68,2.42.33,2.88-.7.53-1.19.82-1.84,1.35-3.04.39-.9.76-1.82,1.34-2.61.58-.79,1.4-1.46,2.36-1.62.86-.14,1.78.14,2.41.75.48.47.78,1.1,1.06,1.72.7,1.51,1.4,3.03,2.1,4.54,1.42,3.06,2.97,6.24,3.02,9.61.01.82-.11,1.78-.8,2.23-.38.25-.86.29-1.29.44-1.77.6-2.38,2.81-2.3,4.67.08,1.86.58,3.78-.01,5.55-.55,1.63-3.83,4.49-1.83,6.17.73.62,1.78.71,2.74.63s1.92-.28,2.87-.14c.23.03.48.11.58.31.11.21.02.47.04.71.05.51.64.82,1.14.76,2.66-.33,4.25-3.96,6.79-4.83,1.64-.56,3.44-.83,4.84-1.86,1.8-1.31,2.63-3.62,4.33-5.06,1.28-1.08,2.93-1.59,4.37-2.45,3.38-2.01,5.31-5.73,8.15-8.45,1.62-1.55,3.55-2.79,4.93-4.57,1.37-1.77,2.07-4.36.85-6.25-.88-1.36-2.71-2.55-2.18-4.08.3-.87,1.25-1.29,2.11-1.62l4.03-1.54c.98-.37,1.98-.75,3.03-.8.9-.03,1.8.18,2.7.21,3.14.08,5.66-2.11,8.08-3.82,2.19-1.54,8.88-3.07,6.16-6.77-.34-.46-.82-.83-1.01-1.37-.47-1.37,1.14-3.2.05-4.15-.77-.68-2.11,0-2.96-.59-.62-.43-.67-1.37-.36-2.05.77-1.68,2.46-2.63,3.2-4.39.77-1.84.86-3.89,1.72-5.7.68-1.43,1.8-2.6,2.81-3.82,1.51-1.81,2.87-3.85,4.92-5.01,1.25-.71,2.68-1.04,4.06-1.45,3.66-1.08,7.14-2.59,10.8-3.56,4.28-1.13,8.5-2.91,12.55-4.69,3.15-1.38,1.74-3.24,3.12-5.51.67-1.1,2.01-1.42,2.91-2.26,1.63-1.53.46-1.68.44-3.33-.02-1.69,1.04-2.89,1.53-4.45.58-1.84.66-3.83.53-5.75-.2-2.98-.9-5.91-.97-8.9-.09-4.21,1.07-8.33,2.21-12.38.16-.55.4-1.19.95-1.34,1.53-.41,1.76,3.17,3.3,2.81.34-.08.6-.37.78-.67.62-1.01,1.09-2.62,2.26-2.4.26.05.5.2.76.22,1.27.12,1.17-2.19,2.31-2.77.28-.14.6-.16.91-.14,3.24.14,5.62,3.18,6.7,6.24,1.08,3.06,1.36,6.4,2.85,9.28.57,1.1,1.4,2.18,2.59,2.49.41.11.85.12,1.23.31,1.15.57,1.06,2.26,1.84,3.28.61.81,1.67,1.09,2.6,1.48,1.72.71,3.24,1.91,4.32,3.43.36.5.67,1.04.82,1.63.26,1,.06,2.07-.37,3.01-1.28,2.8-4.37,4.39-5.8,7.11-.29.56-.54,1.19-1.09,1.51-.54.32-1.46-.02-1.38-.64-.74.02-1.23.8-1.38,1.52-.14.73-.09,1.5-.38,2.18-.3.68-1.17,1.2-1.78.77-.46-.33-.5-1-.86-1.44-.55-.68-1.86-.42-2.1.42-.17.57.1,1.16.27,1.73.61,1.97.14,4.17-.92,5.95-1.06,1.78-2.64,3.18-4.33,4.37-.79.56-1.64,1.12-2.02,2.01-.39.91-.18,1.95-.36,2.92-.35,1.84-2.02,3.17-2.53,4.97-.43,1.52-.06,3.12-.31,4.67-.19,1.17-1.22,2.9.25,3.73.52.3,1.28.3,1.55.83.39.75-.62,1.49-.76,2.33-.15.94.8,1.64,1.42,2.36,1.47,1.7,1.36,4.33,2.73,6.1,1.41,1.83,4.35,2.21,6.18.8.38-.29.73-.68.82-1.15.33-1.65-2.43-2.68-2.17-4.34.13-.84.98-1.35,1.75-1.73.25-.12.53-.25.79-.15.23.09.35.33.46.55.45.95.91,1.89,1.36,2.84.31.65.63,1.33.59,2.05-.06,1.05-.85,1.88-1.59,2.62-1,1-2,1.99-3,2.99-.4.4-1.01.82-1.47.51-.32-.22-.4-.69-.74-.87-.43-.23-.94.18-1.11.63s-.17.96-.4,1.38c-.93,1.68-4.04.16-5.23,1.67-.5.64-.41,1.54-.49,2.35-.43,4.23-6.33,5.1-9.35,6.87-3.95,2.31-7.44,5.39-10.21,9.04-2.09,2.76-3.83,6.2-3.04,9.57.05.23.14.47.35.58.33.16.67-.14,1-.3,1.08-.53,2.34.64,2.44,1.83.1,1.2-.52,2.32-1,3.42-2.56,5.86-1.35,12.97-4.46,18.56-.1.18-.22.37-.41.45-.63.26-.92-.76-.99-1.44-.22-2-2.39-3.55-4.35-3.1-.23.05-.47.14-.63.32-.15.18-.2.43-.21.67-.11,1.53.66,3.02,1.74,4.12,1.07,1.1,2.43,1.87,3.76,2.62,1.27.72.48,1.65.54,3.11.26,6.6-1,13.25-3.66,19.3-1.29-1.91-1.33-4.59-.09-6.54.57-.89,1.37-2.12.59-2.84-.88-.83-2.47.42-3.47-.25-1.44-.96.51-4.07-1.11-4.68-.35-.13-.74-.05-1.12-.07-1.4-.04-2.51-1.63-2.08-2.96.12-.36.33-.72.25-1.09-.16-.71-1.13-.75-1.82-.97-1.57-.52-2.05-2.55-1.74-4.17.31-1.62,1.16-3.13,1.26-4.77.03-.54-.2-1.26-.74-1.21-.33.03-.54.35-.7.64-1.58,2.84-3.18,6.3-1.69,9.19.64,1.25,1.84,2.29,1.95,3.69.06.76-.2,1.62.23,2.25.68.99,2.66.83,2.77,2.02.06.76-.8,1.26-1.02,1.99-.34,1.09.81,2.01,1.69,2.75.87.74,1.5,2.33.49,2.86-1.08.56-2.62-1-3.46-.13-.56.59.02,1.61.76,1.92.75.32,1.62.27,2.35.63.73.36,1.2,1.46.56,1.96-.22.17-.52.22-.72.41-.56.53.11,1.43.75,1.85.61.4,1.28.79,1.63,1.43.35.64.2,1.62-.49,1.86-.99.35-2.39-.91-2.95-.03-.11.17-.13.39-.11.6.12,1.05,1.32,1.66,2.38,1.63,1.06-.04,2.04-.51,3.08-.75s2.27-.15,2.93.67c1.63.29,2.15,1.86,1.73,3.45-.11.41-.3.8-.3,1.22,0,.82.7,1.43,1.18,2.09.48.66.65,1.78-.09,2.14-.32.15-.71.09-1.02.27-.72.42-.56,1.45-1.36,1.9-.69.39-1.55-.53-2.14.52-1.49,2.63-2.85-2.29-3.33.95-.17,1.12.52,3.64,1.94,3.4,1.51-.26,1.47-2.73,3.82-2.01.72.22,1.34.79,2.09.86,1.11.1,2-.91,2.5-1.9.18-.36.39-.78.78-.89.71-.2,1.19.72,1.29,1.46.35,2.68-.38,5.48-1.99,7.64-.64.86-1.77,1.69-2.71,1.17-.44-.24-.7-.73-1.1-1.03-1.12-.86-3.05.46-2.65,1.81.06.2.15.39.14.6-.08,1.2-2.73.14-2.97,1.32-.12.57.6.98,1.19.95.59-.03,1.17-.28,1.74-.13.95.25,1.29,1.58.78,2.42-.5.85-1.55,1.23-2.53,1.28-.33.02-.67,0-.96.16-.96.52-.14,2.17.95,2.21,1.09.04,1.97-.79,2.8-1.5.83-.71,1.95-1.36,2.94-.93.56.24.35.37.27.97-.09.6-.43,1.14-.49,1.75-.03.3.01.61-.08.89-.15.45-.62.73-1.09.83s-.95.05-1.43.06c-2.2.07-4.17,1.49-5.45,3.28-1.75,2.46-3.89,5.54-4.36,8.57-.1.64-.13,1.3-.38,1.9-.38.91-1.23,1.55-2.11,1.98-.89.44-1.85.72-2.72,1.17-1.34.7-2.46,1.83-3.16,3.17-3.33,2.1-3.34,6.86-5.8,9.93-.29.36-.62.72-.76,1.16-.14.44-.07.91-.11,1.37-.19,1.88-2.14,2.99-3.26,4.51-.41.56-.71,1.19-.93,1.85-.15.44-.26.9-.48,1.31-.72,1.3-2.4,1.77-3.3,2.96-.46.61-.72,1.4-1.35,1.81-.9.57-2.34.26-2.88,1.18-.33.56-.23,1.45-.83,1.67-.48.17-1-.28-1.5-.15-.59.15-.68.97-.5,1.56.18.59.5,1.2.28,1.77-.12.32-.4.55-.53.86-.17.39-.11.84-.09,1.27.07,1.6-.7,2.35-1.23,3.67-.66,1.67-.8,3.76-1,5.53-.43,3.78-.37,7.62.19,11.38.11.77.25,1.56.14,2.33-.17,1.26-.96,2.33-1.48,3.49-.81,1.79-.85,3.65-.51,5.55.05.28.21,1.74.5,1.89,1.92,1.01,1.27-2.79,1.21-3.45-.08-.93-.68-3.76.38-4.36,1.88-1.05,2.07,3.9,2.25,4.75.57,2.66,2.06,5.02,3.53,7.31,2.78,4.35,5.57,8.7,8.68,12.81.27.36.39,1.08-.06,1.08-.16,0-.28-.12-.39-.23-.53-.54-1.07-1.08-1.6-1.62-.59.56-.52,1.54-.12,2.24.4.7,1.06,1.21,1.64,1.78,1.13,1.12,1.94,2.52,2.74,3.9,1.09,1.88,2.17,3.76,3.26,5.64.71,1.23,1.43,2.48,1.81,3.86.22.81.32,1.64.57,2.44.86,2.67,3.5,5.13,2.54,7.76-2.31,6.32-.2,12.48-.99,19.15-.09.73-.18,1.48-.56,2.11-.47.79-1.31,1.28-2.12,1.74-.72.41-1.45.82-2.17,1.22-.6.34-1.25.69-1.94.62-.69-.07-1.34-.78-1.08-1.42.38-.96,2.13-1.12,1.46-2.17-.15-.23-1.78-.56-2.11-.74-.85-.45-1.59-1.15-2.3-1.79-1.84-1.65-3.67-3.31-5.51-4.96-.56-.5-1.14-1.04-1.4-1.75-.33-.91-.1-2.02-.72-2.77-.77-.92-2.53-.84-2.88-1.99-.22-.73.31-1.59-.05-2.26-.41-.77-1.6-.64-2.26-1.22-.89-.78-.66-2.65-1.82-2.87-.77-.15-1.44.68-2.22.61-.5-.04-.89-.44-1.23-.81-1.91-2.1-3.97-4.79-3.11-7.5.19-.6.53-1.16.6-1.79.12-.98-.7-2.49-1.83-2.39-.77.06-1.02,1.26-1.98,1.28-1.45.03-1.69-1.46-1.8-2.61-.27-2.79.9-5.52.89-8.24,0-3.95-2.47-7.8-6.06-9.45-1.79-.82-3.96-1.26-5.02-2.91-.51-.8-.68-1.78-1.11-2.62-1.21-2.35-4.12-3.13-6.71-3.67-1.14-.24-2.7-.27-3.08.83-.27.77.24,1.72-.22,2.38-.19.28-.51.43-.82.58-2.52,1.18-5.03,2.37-7.55,3.55-.32.15-.68.31-1.02.2-.79-.23-.66-1.44-1.22-2.05-.75-.81-2.27-.13-3.13-.82-.52-.42-.62-1.19-1.07-1.68-.32-.35-.79-.52-1.24-.66-5.19-1.68-10.78-2.11-16.17-1.23-.39.06-.79.14-1.12.36-.45.31-.67.84-.95,1.31-1.03,1.73-3.1,2.78-5.1,2.58-2.4-.24-3.19-3.3-5.48-2.05-2.65,1.46-4.08,3.41-7.55,2.74-1.14-.22-2.43.16-3.39.82-.96.66-1.8,1.51-2.84,2.03-1.12.56-2.4.71-3.65.69-1.72-.02-3.44-.33-5.06-.91-1.67-.59-3.66-1.43-5.05-.34-1.4,1.1-.85,3.62.73,4.44,1.58.82,3.61.22,4.92-.98.54-.5,1.3-1.14,1.91-.71.73.52.04,1.79.52,2.55.34.53,1.13.56,1.7.3s1.01-.73,1.54-1.08c1.01-.67,2.46-.81,3.41-.04.95.77.98,2.51-.09,3.09-.43.24-.94.26-1.41.41-1,.34-1.72,1.36-1.7,2.42.02,1.05.78,2.05,1.79,2.35.57.17,1.18.13,1.77.24,1.34.24,2.5,1.32,2.84,2.64.34,1.32-.15,2.82-1.21,3.68-.21.17-.45.32-.72.36-.99.13-1.43-1.15-1.94-2-1.48-2.46-5.37-2.18-7.24-4.35-.67-.78-1.04-1.82-1.86-2.43-.83-.61-2.4-.27-2.33.76.06.91,1.22,1.19,2.01,1.64,1.29.75,1.79,2.47,1.39,3.91-.4,1.43-1.53,2.57-2.82,3.31-.26.15-.56.29-.85.2-.36-.11-.53-.52-.79-.8-.74-.82-2.12-.48-3.03.16s-1.7,1.54-2.79,1.74c-1.83.34-3.39-1.53-3.75-3.36-.36-1.83.03-3.74-.27-5.58-.24-1.53-1.53-3.38-2.8-4.26-.34-.23-.88-.23-1.1.12-.12.19-.12.43-.11.65.01.33.03.66.14.97.27.78,1.01,1.26,1.61,1.83.59.57,1.09,1.46.7,2.18-1.03,1.92-4.11-1.6-5.74-1.52-.23.01-.47.05-.7-.02-3.7-1.19-1.96,1-3.61,2.84-1.51,1.69-7.06.65-9,.25-1.41-.3-2.77-.79-4.19-1-5.07-.75-9.9,2.08-14.33,4.67-.55.32-1.77,1.02-2.41.51-.63-.51.26-1.49-.26-2.07-.36-.4-1.15-.05-1.48-.47-.24-.3-.05-.74.08-1.1s.06-.92-.32-.94c-.17-.01-.33.1-.46.21-1.05.85-2.17,1.79-2.5,3.1-.34,1.35.22,2.87-.39,4.12-.41.85-1.28,1.38-1.86,2.13-.84,1.08-1.03,2.52-1.65,3.73-.86,1.68-2.52,2.85-4.32,3.39-1.8.54-3.74.51-5.6.22-.85-.13-1.9-.3-2.68.06-.78.36-1.24,1.49-.64,2.1.16.16.38.28.45.49.11.31-.15.62-.39.85-.87.84-2.35,1.68-3.14.75-.18-.21-.3-.51-.56-.61-.58-.22-.91.74-.64,1.3.27.56.79,1.1.63,1.71-.09.34-.37.58-.64.8-.73.6-1.47,1.2-2.2,1.8-.41.34-.99.69-1.44.41-.42-.26-.45-.93-.89-1.16-.52-.27-1.12.37-1.08.96.04.58.46,1.06.79,1.54.34.48.62,1.1.38,1.63-.37.8-1.5.72-2.37.78-.88.06-1.9,1.05-1.26,1.65.2.18.48.23.72.34.91.42,1.08,1.74.58,2.6-.51.86-1.46,1.35-2.4,1.71-.42.16-.91.37-1,.81-.16.8.99,1.06,1.71,1.44,1.04.54,1.39,2.08.69,3.02-.47.62-1.3,1.01-1.47,1.77-.09.41.04.84.18,1.24.8,2.4,1.61,4.8,2.41,7.2.39,1.16.03,4.06.97,4.82.44.36,1.02.49,1.52.76.5.28.94.84.76,1.37-.58,1.76-3.46.56-5.23.04-2.73-.8-5.45-1.59-8.18-2.39-3.33-.97-6.69-1.96-9.77-3.58-1.62-.86-3.34-2.23-3.24-4.06.03-.56.24-1.11.17-1.66-.12-1.03-1.1-1.7-1.87-2.4-1.48-1.34-2.42-3.26-2.58-5.25-.16-1.96.33-4.2-.95-5.7-.76-.89-1.96-1.26-2.92-1.92-2.5-1.71-3.14-5.09-5.02-7.46-.91-1.15-2.1-2.05-2.96-3.24-1.82-2.53-1.92-6.08-3.99-8.41-1.68-1.89-4.45-2.72-5.69-4.92-.59-1.05-.78-2.34-1.61-3.22-.91-.97-2.35-1.18-3.68-1.34-1.41-.17-2.83-.34-4.24-.5-.92-.11-1.92-.2-2.71.29-.71.44-1.11,1.28-1.8,1.74-1,.66-2.42.45-3.37,1.18-1.68,1.29-.65,4.4-2.28,5.77-.36-.75-1.55-.33-2.04.34-.49.67-.89,1.58-1.71,1.71-.74.11-1.36-.49-1.9-1.01-2.17-2.09-4.97-3.52-7.94-4.05-.72-.13-1.48-.22-2.05-.68-1.35-1.09-.77-3.44-1.94-4.72-1.8-1.98-4.22-1.71-4.43-5.08-.09-1.52.18-3.09-.32-4.53-.76-2.18-3.15-3.58-3.58-5.84-.11-.6-.08-1.22-.28-1.8-.61-1.78-2.88-2.16-4.56-2.99-1.72-.85-3.04-2.46-3.56-4.3-.45-1.62-.64-3.8-2.27-4.19-.48-.11-1-.02-1.47-.17-1.5-.46-1.2-2.26-2.03-3.25-.92-1.11-1.72-.86-3.16-1.03Z"/>
    <g>
      <path class="cls-1" d="M577.12,28.64c-.16-.59-.47-1.13-.82-1.63-1.08-1.52-2.6-2.72-4.32-3.43-.94-.38-1.99-.67-2.6-1.48-.77-1.02-.69-2.71-1.84-3.28-.38-.19-.82-.2-1.23-.31-1.19-.31-2.03-1.39-2.59-2.49-1.49-2.88-1.77-6.23-2.85-9.28-1.08-3.06-3.46-6.1-6.7-6.24-.31-.01-.63,0-.91.14-1.14.58-1.04,2.89-2.31,2.77-.26-.02-.5-.17-.76-.22-1.17-.21-1.64,1.39-2.26,2.4-.18.3-.44.59-.78.67-1.54.36-1.77-3.21-3.3-2.81-.56.15-.8.79-.95,1.34-1.15,4.05-2.31,8.17-2.21,12.38.07,2.98.76,5.92.97,8.9.13,1.92.05,3.9-.53,5.75-.49,1.56-1.56,2.76-1.53,4.45.02,1.65,1.19,1.8-.44,3.33-.32.3-.69.53-1.06.75,3.22,9.13,6.45,18.26,9.67,27.39.2.57.42,1.16.89,1.54.41.33.96.45,1.48.55.53.11,1.06.21,1.59.32.04-.16.08-.31.1-.45.25-1.54-.12-3.15.31-4.67.51-1.8,2.18-3.13,2.53-4.97.18-.97-.02-2.02.36-2.92.38-.89,1.23-1.45,2.02-2.01,1.69-1.19,3.27-2.59,4.33-4.37,1.06-1.78,1.53-3.97.92-5.95-.18-.57-.44-1.16-.27-1.73.25-.84,1.55-1.1,2.1-.42.36.44.4,1.11.86,1.44.6.43,1.48-.09,1.78-.77.3-.68.24-1.45.38-2.18.14-.73.64-1.5,1.38-1.52-.08.62.83.96,1.38.64.54-.32.8-.95,1.09-1.51,1.43-2.73,4.52-4.32,5.8-7.11.43-.94.63-2.01.37-3.01Z"/>
      <g>
        <g>
          <path class="cls-1" d="M551.7,70.15c-.53-.11-1.06-.21-1.59-.32-.52-.1-1.06-.22-1.48-.55-.47-.38-.69-.98-.89-1.54-3.22-9.13-6.45-18.26-9.67-27.39-.69.41-1.41.8-1.84,1.51-1,1.65-.54,3.07-1.41,4.25.43,1.15.7,2.49,1.36,3.51.27.41.61.78.83,1.23.84,1.72-.47,3.64-1.28,5.38-1,2.14-1.24,4.54-1.47,6.88-.2,2.05-.41,4.1-.61,6.15-.04.45-.09.91.05,1.33.23.71.9,1.17,1.4,1.72,2.22,2.48.94,6.66,1.79,9.74,2.75-1.06,5.49-2.11,8.24-3.16.86-.33,1.73-.67,2.43-1.26.64-.54,1.09-1.25,1.62-1.9.77-.95,1.71-1.75,2.74-2.4-1.08-.75-.51-2.1-.22-3.18Z"/>
          <path class="cls-1" d="M533.71,70.59c-.14-.43-.1-.89-.05-1.33.2-2.05.41-4.1.61-6.15.23-2.35.48-4.75,1.47-6.88.81-1.74,2.12-3.66,1.28-5.38-.22-.44-.56-.81-.83-1.23-.66-1.02-.93-2.35-1.36-3.51-.33.45-.85.87-1.72,1.26-4.05,1.78-8.27,3.55-12.55,4.69-.72.19-1.43.41-2.14.64-.05,1.39.02,2.78.41,4.12.54,1.83,1.64,3.45,2.32,5.23.88,2.34.99,4.94,2.13,7.16.57,1.1,1.36,2.07,2.03,3.11,2.27,3.52,3.44,7.78,4.11,12.04,1.47-.1,3.02-.61,4.4-1.14,1.02-.39,2.04-.79,3.07-1.18-.85-3.09.43-7.26-1.79-9.74-.5-.56-1.17-1.01-1.4-1.72Z"/>
        </g>
        <path class="cls-1" d="M566.19,81.87c-.45-.95-.91-1.89-1.36-2.84-.11-.22-.23-.46-.46-.55-.26-.1-.54.02-.79.15-.76.38-1.62.89-1.75,1.73-.25,1.67,2.51,2.69,2.17,4.34-.09.47-.44.86-.82,1.15-1.83,1.41-4.77,1.03-6.18-.8-1.37-1.78-1.26-4.41-2.73-6.1-.63-.72-1.58-1.42-1.42-2.36.14-.84,1.15-1.58.76-2.33-.28-.53-1.03-.53-1.55-.83-.05-.03-.09-.07-.13-.1-1.03.65-1.97,1.45-2.74,2.4-.52.65-.98,1.36-1.62,1.9-.7.59-1.57.93-2.43,1.26-3.77,1.45-7.53,2.9-11.3,4.34-1.38.53-2.93,1.04-4.4,1.14.35,2.21.56,4.42.71,6.53.12,1.71.2,3.43.38,5.13.77-.57,1.65-1.03,2.54-1.37,1.87-.72,3.85-1.08,5.74-1.76,3.74-1.35,7.02-3.94,10.93-4.65.54-.1,1.1-.16,1.63,0,.95.28,1.56,1.17,2.22,1.92.66.75,1.44,1.4,2.3,1.92,1.07-.02,2.12-.04,2.6-.9.23-.42.23-.93.4-1.38s.68-.86,1.11-.63c.34.18.42.66.74.87.47.32,1.07-.11,1.47-.51,1-1,2-1.99,3-2.99.74-.74,1.53-1.58,1.59-2.62.04-.72-.28-1.4-.59-2.05Z"/>
      </g>
      <g>
        <path class="cls-1" d="M548.37,91.81c-.27-.99-.52-2-.65-3.01-3.07,1.05-5.85,2.99-8.93,4.1-1.88.68-3.87,1.04-5.74,1.76-.89.35-1.77.8-2.54,1.37.09.87.2,1.74.37,2.61.78,3.94,4.03,6.96,3.71,10.73,1.08-1.24,9.76-1.98,11-3.06,1.65-1.43-4.09-3.14-2.21-4.25,1.94-1.14,5.07-1.91,7.17-3.43-.33-.63-.56-1.32-.78-2-.5-1.6-.97-3.21-1.41-4.82Z"/>
        <path class="cls-1" d="M553.57,90.16c-.65-.75-1.26-1.64-2.22-1.92-.53-.15-1.09-.09-1.63,0-.69.13-1.35.32-2.01.55.14,1.02.39,2.03.65,3.01.44,1.62.91,3.23,1.41,4.82.22.68.44,1.37.78,2,1.17-.85,2.03-1.93,2.18-3.44.08-.81-.01-1.71.49-2.35.58-.73,1.62-.75,2.64-.77-.86-.52-1.64-1.16-2.3-1.92Z"/>
      </g>
      <path class="cls-1" d="M534.6,109.37c.32-3.77-2.93-6.8-3.71-10.73-.51-2.54-.57-5.15-.75-7.74-.44-6.19-1.38-13.24-4.82-18.58-.67-1.04-1.47-2.01-2.03-3.11-1.14-2.22-1.25-4.82-2.13-7.16-.67-1.79-1.78-3.4-2.32-5.23-.39-1.33-.46-2.72-.41-4.12-2.9.92-5.72,2.05-8.67,2.92-1.38.41-2.81.74-4.06,1.45-2.05,1.16-3.42,3.2-4.92,5.01-1.01,1.22-2.13,2.38-2.81,3.82-.86,1.81-.95,3.86-1.72,5.7-.74,1.75-2.42,2.7-3.2,4.39-.32.69-.27,1.63.36,2.05.85.58,2.19-.09,2.96.59,1.09.96-.52,2.78-.05,4.15.19.54.67.91,1.01,1.37,2.72,3.69-3.97,5.23-6.16,6.77-2.42,1.7-4.94,3.89-8.08,3.82-.9-.02-1.8-.24-2.7-.21-1.05.04-2.05.42-3.03.8-1.34.51-2.69,1.03-4.03,1.54-.86.33-1.81.75-2.11,1.62-.52,1.53,1.3,2.72,2.18,4.08,1.22,1.88.52,4.47-.85,6.25-1.37,1.77-3.31,3.02-4.93,4.57-1.84,1.77-3.31,3.95-5.04,5.82,3.28-.21,6.07-1.71,9.45-2.45,4.64-1.01,9.15-2.5,13.61-4.12,8.68-3.15,17.23-6.86,26.33-8.69.46-.09.95-.18,1.4-.04.89.27,1.28,1.27,1.72,2.09,1.25,2.32,3.61,3.87,6.11,4.68,2.5.82,5.16.98,7.79,1.14,1.18.07,2.35.14,3.53.22.21-.31.43-.62.66-.92.45-.59.93-1.17,1.42-1.73Z"/>
      <path class="cls-1" d="M527.07,143.77c.07.68.36,1.7.99,1.44.19-.08.31-.27.41-.45,3.11-5.59,1.9-12.7,4.46-18.56.48-1.1,1.1-2.22,1-3.42-.1-1.2-1.37-2.37-2.44-1.83-.33.16-.67.46-1,.3-.21-.1-.29-.35-.35-.58-.71-3.01.6-6.07,2.38-8.65-1.18-.07-2.35-.14-3.53-.22-2.63-.16-5.29-.33-7.79-1.14-.02,0-.03-.01-.05-.02-.81,1.67-1.62,3.35-2.42,5.02-.2.42-.41.87-.35,1.33.11.89,1.17,1.45,1.24,2.35.07.81-.7,1.48-.72,2.29-.03,1.17,1.35,1.75,2.33,2.38,1.51.96,2.46,2.73,2.43,4.52-.04,3.14-2.83,5.77-2.78,8.91.02,1.28.52,2.45,1.22,3.54.15-.18.39-.26.62-.31,1.96-.45,4.13,1.1,4.35,3.1Z"/>
      <path class="cls-1" d="M467.49,154c16.28-5.39,32.55-10.78,48.83-16.17,1.57-.52,3.15-1.05,4.69-1.64.53-2.61,2.61-4.94,2.65-7.65.03-1.79-.93-3.56-2.43-4.52-.99-.63-2.36-1.21-2.33-2.38.02-.81.79-1.48.72-2.29-.07-.9-1.12-1.46-1.24-2.35-.06-.46.15-.91.35-1.33.81-1.67,1.62-3.35,2.42-5.02-2.48-.82-4.83-2.36-6.06-4.66-.44-.82-.84-1.81-1.72-2.09-.45-.14-.94-.05-1.4.04-9.1,1.83-17.64,5.53-26.33,8.69-4.46,1.62-8.97,3.11-13.61,4.12-3.38.74-6.17,2.24-9.45,2.45-.81.87-1.68,1.67-2.67,2.33,1.61,6.89,3.21,13.77,4.82,20.66.92,3.94,1.84,7.88,2.76,11.81Z"/>
      <path class="cls-1" d="M527.94,153.14c0-.54,0-1.09-.02-1.63-.06-1.46.73-2.4-.54-3.11-1.34-.76-2.69-1.53-3.76-2.62-1.07-1.1-1.84-2.58-1.74-4.12.02-.24.06-.49.21-.67,0,0,0,0,0,0-.7-1.09-1.19-2.26-1.22-3.54,0-.43.04-.85.13-1.26-1.54.59-3.1,1.11-4.66,1.63,2.48,5.55,4.4,11.34,5.72,17.27,2.01-.45,3.98-1.11,5.86-1.94Z"/>
      <path class="cls-1" d="M479.58,156.22c.77-.17,1.25-.92,1.73-1.55.84-1.1,2.41-1.63,3.46-2.66.81-.8,1.81-1.66,2.92-1.46.83.14,1.63.86,2.41.54.74-.3.84-1.27,1.14-2.01.77-1.85,3.67-2.27,4.95-.73.33.4.57.9,1.02,1.15.73.39,1.64-.05,2.44.15,1.56.38,1.68,2.69,2.98,3.63,1.14.82,2.95.4,3.88,1.46.68.78.51,2,.04,2.92-.47.92-1.18,1.72-1.54,2.69-.13.36-.21.77-.06,1.12.26.6,1.05.76,1.69.63.64-.13,1.24-.45,1.88-.49.81-.05,1.61.33,2.42.27,1-.08,1.8-.83,2.72-1.22.75-.32,1.6-.38,2.4-.22.33-.45.74-.86.69-1.39-.1-1.19-2.09-1.04-2.77-2.02-.43-.63-.17-1.48-.23-2.25-.11-1.4-1.31-2.44-1.95-3.69-1.49-2.89.11-6.34,1.69-9.19.16-.29.37-.61.7-.64.54-.05.77.67.74,1.21-.11,1.65-.95,3.15-1.26,4.77-.31,1.62.17,3.66,1.74,4.17.69.23,1.66.26,1.82.97.08.37-.13.73-.25,1.09-.43,1.33.68,2.92,2.08,2.96.37.01.77-.07,1.12.07,1.62.61-.33,3.72,1.11,4.68,1,.67,2.6-.57,3.47.25.77.73-.02,1.95-.59,2.84-1.24,1.95-1.2,4.63.09,6.54,2.44-5.55,3.68-11.61,3.67-17.67-1.89.84-3.85,1.49-5.86,1.94-1.32-5.93-3.24-11.73-5.72-17.27-.01,0-.03,0-.04.01-12.43,4.12-24.86,8.23-37.29,12.35.05,3.12.2,6.12.55,6.05Z"/>
      <path class="cls-1" d="M417.86,137.2c4.32-1.83,8.76-3.39,13.26-4.71-.06-1.63,2.02-3.65,2.46-4.93.6-1.77.1-3.69.01-5.55s.53-4.07,2.3-4.67c.43-.15.91-.19,1.29-.44.69-.45.81-1.4.8-2.23-.05-3.38-1.6-6.55-3.02-9.61-.7-1.51-1.4-3.03-2.1-4.54-.28-.61-.58-1.24-1.06-1.72-.62-.61-1.55-.9-2.41-.75-.97.16-1.79.83-2.36,1.62-.58.79-.95,1.71-1.34,2.61-.52,1.2-.81,1.85-1.35,3.04-.46,1.03-1.97,1.38-2.88.7s-1.04-2.15-.32-3.02c.63-.76,1.74-1.07,2.2-1.95.42-.8.15-1.78.25-2.68.1-.94.61-1.78.97-2.66,1.17-2.89.54-6.43-1.56-8.74-.27-.3-.58-.6-.69-.99-.21-.7.26-1.4.55-2.08.29-.67.25-1.69-.45-1.88-.52-.15-1.09.27-1.58.06-.32-.13-.49-.48-.75-.71-.21-.19-.47-.3-.73-.41-1.38-.55-2.86-.85-4.34-.89-.78-.02-1.58.02-2.32-.22-1.06-.34-1.85-1.22-2.85-1.71-1.64-.8-3.83.46-4.7,1.9-.67,1.09-.4,2.83.82,3.22.3.09.65.12.83.37.29.39-.1.94-.56,1.1-.45.16-.96.1-1.41.26-1.08.4-1.31,1.83-1.14,2.97.17,1.14.56,2.34.09,3.39-.17.38-.48.73-.88.84-.75.21-1.5-.46-1.76-1.19-.26-.74-.2-1.55-.33-2.32-.05-.26-.14-.54-.37-.65-.56-.26-.89.61-1.08,1.2-.52,1.58-2.46,2.29-3.16,3.8-.37.79-.34,1.7-.34,2.58,0,2.99-.43,5.97-.46,8.96-.03,2.99.35,6.08,1.83,8.68.74,1.3,1.74,2.45,2.35,3.82,1.02,2.3.82,4.94.6,7.45-.27,3.09-.55,6.23-1.6,9.15-.59,1.63-1.46,3.2-2.6,4.5,7.3-.37,14.56-1.58,21.59-3.59,0,.88.11,1.75.33,2.6Z"/>
      <g>
        <g>
          <path class="cls-3" d="M477.85,287.74c-.52-.11-1.07-.25-1.59-.14-1.03.23-1.58,1.4-1.64,2.46-.06,1.06.22,2.12.13,3.17-.04.51-.23,1.08-.7,1.26-.77.3-1.41-.6-2.08-1.1-.98-.73-2.33-.6-3.54-.43-6.3.88-12.61,1.76-18.91,2.64-2.28.32-4.66.63-6.85-.11-1.84-.62-3.43-1.96-5.35-2.22-1.15-.15-2.3.09-3.43.34-5.67,1.24-11.35,2.48-17.02,3.73-1.85.4-3.71.81-5.47,1.5-1.56.61-3.28,1.98-2.81,3.59.23.78.93,1.32,1.34,2.01.88,1.49.36,3.34.39,5.09,1.39-.34,2.65-1.21,3.38-2.44.28-.47.5-1,.95-1.31.33-.23.73-.3,1.12-.37,5.38-.88,10.98-.45,16.17,1.23.45.15.92.31,1.24.66.45.49.55,1.26,1.07,1.68.87.69,2.38,0,3.13.82.56.6.43,1.81,1.22,2.05.34.1.7-.05,1.02-.21,2.52-1.18,5.03-2.37,7.55-3.55.31-.14.63-.3.82-.58.46-.67-.05-1.62.22-2.38.39-1.1,1.94-1.07,3.08-.83,2.58.54,5.5,1.33,6.71,3.67.44.84.6,1.82,1.11,2.62,1.06,1.66,3.23,2.09,5.02,2.91,3.59,1.66,6.06,5.5,6.06,9.45,0,2.73-1.17,5.46-.89,8.24.11,1.15.35,2.64,1.8,2.61.96-.02,1.21-1.22,1.98-1.28,1.14-.09,1.95,1.41,1.83,2.39-.07.63-.41,1.19-.6,1.79-.87,2.71,1.19,5.4,3.11,7.5.34.37.73.77,1.23.81.78.07,1.46-.76,2.22-.61,1.16.22.93,2.1,1.82,2.87.66.57,1.85.45,2.26,1.22.36.68-.18,1.53.05,2.26.35,1.15,2.12,1.06,2.88,1.99.62.74.39,1.86.72,2.77.26.71.84,1.24,1.4,1.75,1.84,1.65,3.67,3.31,5.51,4.96.71.64,1.45,1.34,2.3,1.79.33.17,1.96.51,2.11.74.68,1.05-1.08,1.21-1.46,2.17-.26.64.4,1.35,1.08,1.42.69.07,1.34-.28,1.94-.62.72-.41,1.45-.82,2.17-1.22.81-.45,1.65-.94,2.12-1.74.37-.63.47-1.38.56-2.11.79-6.68-1.31-12.84.99-19.15.96-2.63-1.68-5.1-2.54-7.76-.26-.79-.36-1.63-.58-2.44-.37-1.37-1.09-2.62-1.81-3.86-1.09-1.88-2.17-3.76-3.26-5.64-.8-1.38-1.61-2.78-2.74-3.9-.57-.57-1.23-1.08-1.64-1.78-.4-.7-.47-1.69.12-2.24.53.54,1.07,1.08,1.6,1.62.11.11.24.23.39.23.45,0,.33-.72.06-1.08-3.12-4.11-5.9-8.46-8.68-12.81-1.47-2.29-2.96-4.65-3.53-7.31-.18-.85-.37-5.8-2.25-4.75-1.06.6-.47,3.43-.38,4.36.06.66.71,4.46-1.21,3.45-.28-.15-.45-1.61-.5-1.89-.33-1.9-.29-3.76.51-5.55.52-1.16,1.31-2.23,1.48-3.49.05-.33.04-.66.02-.99-1.5.33-3.06.36-4.56.05Z"/>
          <g>
            <g>
              <g>
                <g>
                  <g>
                    <path class="cls-1" d="M393.59,200.16c1.11-.31,1.36-1.9,2.41-2.39,1.51-.69,3.31,1.42,4.78.63,1.08-.58,1.1-2.38,2.25-2.82,1.32-.5,3.01,1.26,4.03.29,1.05-1-.53-3.38.77-4.02.91-.44,1.81.77,2.81.8.71.02,1.28-.54,1.76-1.06,1.76-1.91,3.59-3.96,4.12-6.5.28-1.33.26-2.89,1.28-3.79.99-.87,2.48-.69,3.79-.85,1.31-.16,2.82-1.25,2.37-2.49-.12-.34-.38-.62-.54-.95-.47-.94-.04-2.12.72-2.83.04-.03.08-.06.12-.09-2.12-12.3-4.25-24.6-6.37-36.89,0,0,0,0-.01,0-.22-.85-.33-1.72-.33-2.6-7.03,2.02-14.29,3.22-21.59,3.59-.9,1.03-1.95,1.91-3.19,2.5-.45.22-.94.4-1.44.38-.18,0-.35-.04-.52-.09.8,10.64,2,21.25,3.65,31.79.12.78.25,1.58.1,2.36-.21,1.11-.98,2.1-.92,3.23.05,1,.73,1.83,1.13,2.75.97,2.2.27,4.76-.69,6.96-.96,2.2-2.19,4.38-2.3,6.78-.06,1.39.26,2.77.3,4.16,0,.28,0,.56-.03.84.49.25,1.03.46,1.55.31Z"/>
                    <path class="cls-1" d="M456.75,189.41c-.64-.43-1.35-.82-1.95-1.23-1.85-1.27-2.95-3.35-3.97-5.35-.81-1.58-1.61-3.53-.72-5.05-1.4-.35-2.71-1.07-3.69-2.12-.89-.95-1.99-2.27-3.19-1.77-.78.32-1.1,1.29-1.82,1.73-1.49.9-3.73-.88-5.03.28-.25.23-.43.54-.74.68-.84.38-1.48-.78-2.25-1.28-1.15-.74-2.65.09-4.02.05-1.74-.05-3.44-1.51-5.04-.85-.02-.14-.05-.28-.07-.41-.04.03-.08.06-.12.09-.76.72-1.19,1.9-.72,2.83.16.33.42.6.54.95.45,1.24-1.06,2.32-2.37,2.49-1.31.16-2.8-.02-3.79.85-1.02.9-1,2.45-1.28,3.79-.53,2.54-2.36,4.59-4.12,6.5-.48.52-1.05,1.08-1.76,1.06-1.01-.03-1.91-1.24-2.81-.8-1.3.64.28,3.01-.77,4.02-1.02.97-2.71-.78-4.03-.29-1.15.43-1.17,2.23-2.25,2.82-1.46.79-3.26-1.33-4.78-.63-1.05.48-1.3,2.08-2.41,2.39-.52.14-1.06-.06-1.55-.31-.09,1.13-.46,2.24-1.31,2.97-.12.1-.25.2-.33.34-.36.64.66,1.15,1.03,1.78.52.87-.32,1.94-1.18,2.47-.86.54-1.92,1.05-2.13,2.04-.12.55.06,1.18-.23,1.65-.46.73-1.6.51-2.3,0-.7-.51-1.34-1.23-2.21-1.28-.87-.04-1.63.67-1.93,1.49-.3.82-.24,1.71-.18,2.58.16,2.21.31,4.42.47,6.63,1.82-.49,3.92-.49,5.83-.66,3.71-.34,7.25-1.64,10.81-2.74,13.9-4.27,28.55-5.4,42.82-8.19.73-.14,1.45-.31,2.17-.46.87-1.85,2.15-3.52,3.76-4.79,1.26-1,2.75-1.83,3.55-3.22.51-.89.69-1.94,1.22-2.81,1.15-1.89,3.83-2.85,4.13-5.04.15-1.08-.28-2.43.57-3.12.05-.04.11-.05.16-.08Z"/>
                  </g>
                  <path class="cls-1" d="M459.92,121.52c-.15.1-.29.21-.45.3-1.44.85-3.1,1.36-4.37,2.45-1.7,1.44-2.53,3.75-4.33,5.06-1.41,1.02-3.2,1.29-4.84,1.86-2.54.87-4.13,4.49-6.79,4.83-.51.06-1.1-.25-1.14-.76-.02-.24.07-.5-.04-.71-.11-.2-.36-.28-.58-.31-.95-.14-1.91.06-2.87.14-.96.07-2-.01-2.74-.63-.44-.37-.61-.79-.63-1.25-4.5,1.31-8.93,2.87-13.25,4.7,2.15,12.44,4.29,24.87,6.44,37.31,1.61-.67,3.31.8,5.04.85,1.37.04,2.87-.8,4.02-.05.77.5,1.41,1.66,2.25,1.28.31-.14.49-.46.74-.68,1.29-1.16,3.54.62,5.03-.28.72-.44,1.04-1.4,1.82-1.73,1.21-.5,2.3.82,3.19,1.77.99,1.05,2.3,1.77,3.69,2.12.02-.03.03-.07.05-.1.61-.96,1.79-1.44,2.44-2.38.62-.88.32-11.1,2.57-6.1,1.53-.92,1.68-3.05,1.58-4.83-.1-1.78-.18-3.84,1.15-5.03.15-.13.33-.26.53-.25.66,0,.75,1.18,1.4,1.25,1.58-1.27,2.27-3.34,2.63-5.33.68-3.74.5-7.59.95-11.37.15-1.29.41-2.6.78-3.87-1.42-6.09-2.84-12.18-4.26-18.26Z"/>
                </g>
                <path class="cls-1" d="M497.21,149.51c-.46-.25-.7-.75-1.02-1.15-1.27-1.55-4.17-1.12-4.95.73-.31.73-.41,1.7-1.14,2.01-.78.32-1.58-.4-2.41-.54-1.12-.19-2.12.67-2.92,1.46-1.05,1.03-2.62,1.56-3.46,2.66-.48.63-.96,1.38-1.73,1.55-.35.08-.5-2.93-.55-6.05-3.85,1.27-7.69,2.55-11.54,3.82-.92-3.94-1.84-7.88-2.76-11.81-.19-.8-.37-1.6-.56-2.39-.37,1.26-.63,2.57-.78,3.87-.45,3.78-.26,7.62-.95,11.37-.36,1.99-1.05,4.06-2.63,5.33-.65-.07-.75-1.25-1.4-1.25-.2,0-.38.12-.53.25-1.33,1.19-1.25,3.25-1.15,5.03.1,1.78-.05,3.9-1.58,4.83-2.25-5-1.95,5.22-2.57,6.1-.65.94-1.83,1.41-2.44,2.38-.97,1.53-.15,3.53.68,5.15,1.03,2,2.12,4.08,3.97,5.35.6.41,1.31.8,1.95,1.23.53-.31,1.26-.2,1.79.15.58.38.98.98,1.41,1.52.67.84,1.43,1.61,2.28,2.27.73.57,1.84,1.06,2.53.43.75-.69.26-2.13,1.01-2.83.49-.46,1.25-.36,1.91-.45,2.23-.28,3.71-2.72,5.93-3.06,1.04-.16,2.33.07,2.94-.79.26-.36.31-.84.3-1.29-.05-1.96-1.05-3.84-.86-5.79.13-1.29.77-2.46,1.39-3.59,1.2-2.18,2.41-4.37,3.61-6.55.51-.92,1.15-1.95,2.19-2.14.44-.08.9,0,1.33-.12,1.61-.49,1.06-3.08,2.18-4.35.37-.41.89-.65,1.34-.96,2.58-1.78,2.51-5.54,3.6-8.48.35-.94,1.14-1.98,2.12-1.75.93.22,1.52,1.52,2.44,1.29.56-.14.81-.78.97-1.34.19-.64.37-1.28.56-1.92-.18-.02-.35-.06-.51-.15Z"/>
              </g>
              <path class="cls-1" d="M524.62,178.68c-.66-.83-1.9-.91-2.93-.67-1.03.23-2.02.71-3.08.75-1.06.04-2.26-.58-2.38-1.63-.02-.2,0-.42.11-.6.56-.89,1.96.38,2.95.03.69-.24.84-1.22.49-1.86-.35-.64-1.01-1.03-1.63-1.43-.64-.42-1.31-1.32-.75-1.85.2-.19.5-.24.72-.41.65-.49.17-1.6-.56-1.96-.73-.36-1.6-.31-2.35-.63-.75-.32-1.33-1.34-.76-1.92.84-.87,2.38.69,3.46.13,1.02-.53.39-2.12-.49-2.86-.88-.74-2.03-1.65-1.69-2.75.07-.22.19-.41.33-.6-.8-.16-1.65-.1-2.4.22-.92.39-1.72,1.14-2.72,1.22-.81.07-1.61-.32-2.42-.27-.65.04-1.25.37-1.88.49-.64.13-1.43-.03-1.69-.63-.15-.35-.07-.76.06-1.12.36-.97,1.07-1.77,1.54-2.69.47-.92.64-2.14-.04-2.92-.92-1.06-2.73-.64-3.88-1.46-1.31-.94-1.42-3.24-2.98-3.63-.62-.15-1.31.08-1.93,0-.19.64-.37,1.28-.56,1.92-.16.56-.41,1.2-.97,1.34-.92.23-1.52-1.07-2.44-1.29-.98-.23-1.77.81-2.12,1.75-1.09,2.94-1.02,6.69-3.6,8.48-.46.31-.98.55-1.34.96-1.12,1.26-.56,3.85-2.18,4.35-.43.13-.89.04-1.33.12-1.04.19-1.68,1.21-2.19,2.14-1.2,2.18-2.41,4.37-3.61,6.55-.63,1.13-1.26,2.31-1.39,3.59-.19,1.95.81,3.83.86,5.79.01.45-.04.93-.3,1.29-.61.85-1.9.62-2.94.79-2.22.35-3.7,2.79-5.93,3.06-.66.08-1.42,0-1.91.45-.75.7-.26,2.13-1.01,2.83-.68.63-1.79.15-2.53-.43-.85-.66-1.61-1.43-2.28-2.27-.43-.55-.83-1.14-1.41-1.52-.58-.38-1.4-.5-1.94-.07-.85.69-.42,2.03-.57,3.12-.3,2.19-2.98,3.15-4.13,5.04-.53.88-.71,1.92-1.22,2.81-.8,1.4-2.29,2.22-3.55,3.22-1.61,1.27-2.89,2.94-3.76,4.79,15.12-3.14,29.82-8.04,44.47-12.96,12.78-4.29,25.57-8.57,38.35-12.86.06-.18.12-.35.17-.53.42-1.6-.1-3.16-1.73-3.45Z"/>
            </g>
            <g>
              <g>
                <path class="cls-1" d="M494.83,223.94c-2.81-1.76-3.33-2.3-6.26-.67-2.25,1.26-4.8,1.86-7.31,2.4-.51.11-1.06.21-1.53-.01-.61-.29-.87-1-1.28-1.53-1.22-1.55-3.58-1.39-5.53-1.07-2.71.44-5.42.88-8.13,1.32-2.31.38-4.68.77-6.72,1.92-1.29.73-2.41,1.73-3.72,2.43-.9.48-1.87.8-2.85,1.09-.27.69-.48,1.39-.58,2.11-.18,1.39.14,2.93,1.17,3.88,1.03.96,2.57,1.18,3.71,2.01,2.41,1.75,2.1,4.22,5.09,5.51,2.18.94,5.12,1.19,6.92,2.84,1.38,1.26,1.69,3.56,3.26,4.62.68.46,1.55.5,2.33.78,1.45.51,2.53,1.92,2.65,3.45.08,1.04-.23,2.13.17,3.09.52,1.25,1.99,1.75,3.03,2.62.99.84,1.59,2.03,2.25,3.16.65,1.12,1.44,2.25,2.63,2.79.03.01.05.02.08.03.06-.29.09-.6.07-.95-.02-.43-.08-.88.09-1.27.14-.31.41-.55.53-.86.22-.57-.1-1.19-.28-1.77-.18-.59-.09-1.41.5-1.56.49-.13,1.02.33,1.5.15.61-.22.5-1.12.83-1.67.54-.92,1.98-.6,2.88-1.18.64-.41.9-1.2,1.35-1.81.9-1.19,2.58-1.65,3.3-2.96.23-.41.34-.87.48-1.31.22-.66.52-1.29.93-1.85,1.11-1.52,3.07-2.63,3.26-4.51.05-.46-.02-.93.11-1.37.14-.45.47-.8.76-1.16,2.46-3.08,2.47-7.83,5.8-9.93.09-.18.21-.34.31-.5-3.77-2.98-7.73-5.7-11.81-8.25Z"/>
                <path class="cls-1" d="M396.51,247.78c-.02-1.37-.04-2.78-.54-4.06-.33-.83-.85-1.59-1.36-2.35-2.21.78-4.56,1.18-6.88,1.56-5.43.89-10.87,1.78-16.3,2.68-1.36,3.48-2.9,6.89-4.61,10.21-1.56,3.04-3.29,6.07-3.95,9.43-1.2,6.19,1.25,12.3,1.94,18.39.76,6.75-2.46,12.65-3.72,19.17-.19.98-.34,2.07.2,2.92.77,1.22,2.58,1.28,3.91.74,1.34-.54,2.48-1.51,3.86-1.95,2.49-.8,5.23.27,7.79-.29,1.15-.25,2.23-.83,3.39-1.01s2.57.2,3.02,1.3c.42,1.01-.14,2.15-.04,3.24.12,1.39,1.26,2.44,2,3.62.48.77.79,1.63.93,2.52,1.1-.03,2.21-.19,3.19-.68,1.04-.52,1.88-1.37,2.84-2.03.96-.66,2.24-1.04,3.39-.82,1.76.34,2.99,0,4.13-.6-.39-1.51-.65-3.06-.88-4.59-2.8-18.96-2.1-38.23-2.32-57.4Z"/>
                <path class="cls-1" d="M436.85,281.01c-.43-2.01-.96-4.37.38-5.93.52-.6,1.34-1.19,1.18-1.97-.08-.38-.39-.66-.68-.92-1.3-1.17-2.51-2.47-3.36-3.99-.81-1.45-1.26-3.07-1.71-4.68-2.51-8.99-5.02-17.97-7.53-26.96-4.19,1.01-8.39,2.01-12.6,2.97-2.85.65-5.79,1.29-8.66.78-1.61-.29-3.21-.93-4.82-.67-1.05.17-2,.71-2.97,1.15-.48.22-.96.4-1.45.58.51.76,1.03,1.51,1.36,2.35.5,1.28.53,2.68.54,4.06.22,19.16-.48,38.44,2.32,57.4.23,1.53.49,3.08.88,4.59,1.1-.59,2.11-1.42,3.41-2.14,2.29-1.26,3.08,1.81,5.48,2.05.58.06,1.16,0,1.73-.14-.03-1.74.49-3.6-.39-5.09-.41-.7-1.11-1.24-1.34-2.01-.47-1.61,1.25-2.98,2.81-3.59,1.76-.69,3.62-1.1,5.47-1.5,5.67-1.24,11.35-2.48,17.02-3.73,1.06-.23,2.14-.45,3.21-.35.67-4.05.59-8.23-.26-12.25Z"/>
                <path class="cls-1" d="M481.51,263.89c-.65-1.12-1.25-2.32-2.25-3.16-1.04-.87-2.51-1.37-3.03-2.62-.4-.96-.08-2.06-.17-3.09-.12-1.53-1.21-2.94-2.65-3.45-.77-.27-1.65-.32-2.33-.78-1.57-1.06-1.88-3.35-3.26-4.62-1.8-1.65-4.74-1.9-6.92-2.84-2.99-1.29-2.68-3.76-5.09-5.51-1.14-.83-2.67-1.05-3.71-2.01-1.03-.96-1.35-2.49-1.17-3.88.09-.73.31-1.43.58-2.11-.34.1-.69.19-1.03.28-8.42,2.26-16.87,4.41-25.35,6.46,2.51,8.99,5.02,17.97,7.53,26.96.45,1.6.9,3.22,1.71,4.68.85,1.53,2.06,2.82,3.36,3.99.29.26.6.54.68.92.17.78-.66,1.36-1.18,1.97-1.34,1.56-.81,3.91-.38,5.93.85,4.02.93,8.2.26,12.25.07,0,.15,0,.22.01,1.92.26,3.51,1.6,5.35,2.22,2.18.74,4.56.43,6.85.11,6.3-.88,12.61-1.76,18.91-2.64,1.21-.17,2.56-.3,3.54.43.66.5,1.31,1.4,2.08,1.1.47-.19.66-.76.7-1.26.09-1.06-.19-2.11-.13-3.17.06-1.06.61-2.23,1.64-2.46.52-.12,1.06.03,1.59.14,1.5.31,3.07.28,4.56-.05-.03-.45-.1-.9-.16-1.35-.56-3.77-.62-7.6-.19-11.38.2-1.77.34-3.87,1-5.53.41-1.03.96-1.72,1.16-2.72-.03-.01-.06-.02-.08-.03-1.18-.53-1.98-1.66-2.63-2.79Z"/>
              </g>
              <g>
                <path class="cls-1" d="M443.63,224.89c1.27-1.13,1.85-2.86,2.99-4.13,1.39-1.54,3.54-2.35,4.62-4.12.89-1.47,1.16-3.66,2.82-4.11.61-.17,1.27-.02,1.89-.12,1.61-.26,2.52-1.98,3.94-2.77.64-.36,1.39-.52,2.01-.91,1.13-.71,1.69-2.09,1.74-3.42.03-.66-.05-1.32-.17-1.97-7.35,2.17-14.77,4.11-22.29,5.59-14.27,2.79-28.92,3.92-42.82,8.19-3.56,1.09-7.1,2.4-10.81,2.74-3.23.29-7.03.07-9.04,2.62-.95,1.21-1.25,2.79-1.55,4.3-1.28,6.43-3.14,12.74-5.53,18.84,5.43-.89,10.87-1.78,16.3-2.68,2.84-.47,5.71-.94,8.33-2.13.97-.44,1.92-.98,2.97-1.15,1.61-.26,3.21.38,4.82.67,2.88.51,5.82-.13,8.66-.78,8.17-1.87,16.32-3.84,24.44-5.91.05-2,.2-4.17,1.57-5.63,1.37-1.46,3.6-1.78,5.09-3.11Z"/>
                <path class="cls-1" d="M531.71,192.13c-.1-.73-.58-1.66-1.29-1.46-.39.11-.6.52-.78.89-.51.99-1.39,2.01-2.5,1.9-.75-.07-1.37-.64-2.09-.86-2.35-.72-2.31,1.75-3.82,2.01-1.42.25-2.1-2.27-1.94-3.4.48-3.24,1.84,1.68,3.33-.95.59-1.05,1.45-.14,2.14-.52.81-.45.64-1.48,1.36-1.9.3-.18.7-.12,1.02-.27.74-.35.56-1.48.09-2.14-.48-.66-1.18-1.27-1.18-2.09,0-.24.06-.46.13-.69-12.78,4.29-25.57,8.57-38.35,12.86-8.08,2.71-16.18,5.42-24.35,7.83.13.65.2,1.31.17,1.97-.06,1.33-.62,2.71-1.74,3.42-.62.39-1.37.56-2.01.91-1.42.79-2.34,2.51-3.94,2.77-.63.1-1.28-.05-1.89.12-1.66.45-1.93,2.64-2.82,4.11-1.08,1.77-3.23,2.58-4.62,4.12-1.14,1.27-1.72,2.99-2.99,4.13-1.49,1.33-3.72,1.65-5.09,3.11-1.37,1.45-1.52,3.62-1.57,5.63,4.51-1.15,9.01-2.31,13.51-3.52,1.33-.36,2.67-.72,3.88-1.37,1.31-.7,2.43-1.71,3.72-2.43,2.04-1.15,4.4-1.54,6.72-1.92,2.71-.44,5.42-.88,8.13-1.32,1.95-.32,4.31-.49,5.53,1.07.42.53.67,1.24,1.28,1.53.47.22,1.02.12,1.53.01,2.5-.54,5.05-1.14,7.31-2.4,2.93-1.64,3.45-1.09,6.26.67,4.09,2.55,8.04,5.27,11.81,8.25.7-1.12,1.68-2.06,2.85-2.67.88-.46,1.83-.74,2.72-1.17s1.73-1.07,2.11-1.98c.25-.6.28-1.26.38-1.9.48-3.03,2.61-6.11,4.36-8.57,1.27-1.79,3.25-3.21,5.45-3.28.48-.02.96.03,1.43-.06.47-.1.94-.38,1.09-.83.09-.28.05-.59.08-.89.06-.6.4-1.15.49-1.75.09-.6.29-.73-.27-.97-.99-.44-2.12.22-2.94.93-.83.71-1.72,1.54-2.8,1.5-1.09-.04-1.91-1.69-.95-2.21.29-.16.63-.15.96-.16.98-.05,2.02-.43,2.53-1.28.5-.85.17-2.18-.78-2.42-.57-.15-1.16.1-1.74.13-.59.03-1.31-.37-1.19-.95.24-1.18,2.89-.12,2.97-1.32.01-.21-.08-.4-.14-.6-.4-1.36,1.53-2.67,2.65-1.81.4.31.66.79,1.1,1.03.94.52,2.07-.31,2.71-1.17,1.61-2.16,2.34-4.97,1.99-7.64Z"/>
              </g>
            </g>
          </g>
        </g>
        <path class="cls-1" d="M353.57,77.88c.46.56,1.21.77,1.93.89,2.29.41,4.65.31,6.91.86,1.97.47,3.79,1.41,5.73,2.01,2.32.72,4.79.95,7.21.66-.15,1.02.65,2.08,1.67,2.22.35.05.73,0,1.06.15.77.34.76,1.41.79,2.25.08,1.81,1.03,3.54,2.45,4.66-.05-.42-.07-.84,0-1.26.25-1.3,1.45-2.15,2.3-3.16,1.32-1.57,1.52-3.2,1.35-5.11-.06-.68-.15-1.92.84-1.57,1.05.37,1.43,3.57,2.64.96.21-.46,1.52-1,1.95-.57.51.51-.25,1.82-.29,2.42,1.05.16,1.93-.81,2.39-1.76s.78-2.06,1.63-2.69c.84-.63,2-.65,2.89-1.2,1.07-.67,1.55-2,2.54-2.77,1.85-1.44,4.53-.45,6.6.63.64.33,1.63.56,1.91-.1.18-.42-.11-.9-.06-1.36.11-1.17,1.86-1.06,2.94-.6,1.08.46,2.85.52,2.91-.66-1.51-2.21-3.78-4.72-6.36-3.97-.8.23-2.78,2-3.57,1.73-.32-.11-.46-.48-.49-.81-.03-.33,0-.68-.14-.99-.31-.68-1.3-.82-1.62-1.5-.34-.72.78-2.41-.18-2.75-.28-.1-.59.02-.87.14-2.3,1.01-4.6,2.01-6.9,3.02-.91.4-1.84.81-2.58,1.48-.66.61-1.13,1.4-1.82,1.97-1.2,1-2.03,1.24-3.39.47-2.32.93-5.16.43-7.03-1.23-.78-.69-1.4-1.56-2.25-2.15-1.01-.7-2.58-1.03-3.72-.48-.8.38-1.49,1.6-2.55.8-.92-.69-.52-2.45.05-3.22.84-1.13,2.16-1.79,3.27-2.66,1.11-.87,2.08-2.23,1.75-3.6-2.85-.3-5.55,1.4-7.61,3.4-2.06,2-3.79,4.37-6.17,5.99-.42.29-.88.57-1.12,1.02-.23.44-.24,1-.58,1.37-.4.44-1.09.4-1.67.51-2.47.48-3.33,2.87-5.37,3.96.02.3.02.6.05.9.06.6.17,1.23.55,1.7Z"/>
      </g>
      <g>
        <path class="cls-1" d="M385.12,129.92c0-1.47.41-2.98-.05-4.37-.21-.64-.6-1.2-.92-1.79-1.55-2.77-1.81-6.23-.69-9.2.38-1.02.93-2.07.74-3.14-.09-.53-.36-1.02-.44-1.55-.25-1.7,1.43-3.14,1.5-4.86.03-.65-.18-1.29-.23-1.93-.12-1.44.53-2.82,1.01-4.18.4-1.11,2.45-7.48.22-7.45-1,.01-1.72.95-2.14,1.85-1.16,2.44-1.4,5.32-2.98,7.51-.53.74-1.59,1.4-2.28.8-.32-.28-.41-.74-.41-1.17,0-2.77,2.94-4.87,2.98-7.64,0-.4-.05-.81-.1-1.22-1.42-1.11-2.37-2.85-2.45-4.66-.04-.84-.02-1.91-.79-2.25-.33-.15-.7-.1-1.06-.15-1.02-.14-1.82-1.2-1.67-2.22-2.41.29-4.89.06-7.21-.66-1.93-.6-3.76-1.54-5.73-2.01-2.26-.54-4.62-.45-6.91-.86-.71-.13-1.47-.33-1.93-.89-.38-.47-.49-1.1-.55-1.7-.03-.3-.04-.6-.05-.9-.29.16-.6.28-.95.38-1.15.31-4.38.91-4.97-.4-.46-1.01,1.31-2.31.52-3.53-.5-.78-1.71-.26-2.47.27-2.01,1.41-4.27,2.49-6.63,3.16-.73.21-1.64.31-2.24-.06-.35.27-.69.53-1.04.8-.95.73-1.98,1.59-2.11,2.78-.09.75.21,1.49.38,2.23.63,2.74-.68,4.92-2.25,7.02-1.16,1.55-3.81,3.87-2.73,6.04.7,1.39,2.73,1.9,3.05,3.43.39,1.84-2.06,3.12-2.33,4.98-.3,2.07,2.1,3.45,4.15,3.85s4.49.66,5.53,2.47c.4.69.52,1.52.89,2.22,1.64,3.1,7.05,2.4,8.63,5.54.47.94.48,2.03.5,3.08.09,3.79.61,7.58,1.54,11.26.46,1.83,1.47,4,3.36,4.03.61.01,1.28-.22,1.82.08.28.16.46.42.59.71,9.41-2.55,19.42-2.54,29.03-4.5-.06-.41-.1-.82-.1-1.24Z"/>
        <path class="cls-1" d="M394.75,181.11c-.4-.91-1.08-1.75-1.13-2.75-.06-1.13.7-2.12.92-3.23.15-.78.03-1.58-.1-2.36-1.65-10.54-2.85-21.15-3.65-31.79-.26-.08-.51-.19-.74-.32-1.79-1.05-2.68-3.11-3.45-5.04-.58-1.45-1.17-2.93-1.39-4.47-9.61,1.95-19.62,1.95-29.03,4.5.13.29.22.62.32.92.81,2.3,3.22,3.66,4.4,5.79,1.72,3.09.07,7.52-3.24,8.75-1.9.7-4.77,1.24-4.51,3.25.06.46.31.87.5,1.3,2.01,4.52-2.67,9.15-3.33,14.05-.36,2.68.59,5.51,2.51,7.42,1.26,1.26,2.88,2.11,4.22,3.29,2.38,2.09,3.81,5.24,3.81,8.41,1.54-.96,3.71-1.87,4.97-.57,1.49,1.54-.17,4.02-.12,6.16.1,4.32,6.66,5.3,8.51,9.2,1.12,2.35.35,5.52,2.16,7.39,1.23,1.28,3.24,1.48,4.85,2.2-.03-.65,0-1.29.22-1.9.3-.82,1.06-1.53,1.93-1.49.86.04,1.51.77,2.21,1.28.7.51,1.85.73,2.3,0,.3-.48.12-1.1.23-1.65.21-.99,1.27-1.5,2.13-2.04.86-.54,1.69-1.6,1.18-2.47-.37-.63-1.39-1.14-1.03-1.78.08-.14.21-.23.33-.34,1.06-.9,1.37-2.41,1.34-3.8s-.36-2.77-.3-4.16c.11-2.4,1.34-4.58,2.3-6.78.96-2.2,1.65-4.76.69-6.96Z"/>
      </g>
      <path class="cls-1" d="M348.89,119.56c-.03-1.05-.03-2.14-.5-3.08-1.58-3.14-6.98-2.44-8.63-5.54-.37-.71-.49-1.53-.89-2.22-1.05-1.81-3.48-2.07-5.53-2.47s-4.45-1.78-4.15-3.85c.27-1.86,2.71-3.14,2.33-4.98-.32-1.52-2.35-2.04-3.05-3.43-1.08-2.16,1.56-4.49,2.73-6.04,1.58-2.1,2.88-4.27,2.25-7.02-.17-.74-.46-1.48-.38-2.23.14-1.19,1.16-2.05,2.11-2.78.35-.27.69-.53,1.04-.8-.17-.1-.33-.24-.43-.43,2.9-3.74,5.8-7.48,8.7-11.22.83-1.07,1.67-2.15,2.77-2.94,1.34-.97,2.97-1.43,4.44-2.19s3.18-1.98,3.4-3.62c-.78-1.82-3.33-1.86-5.26-1.41-1.93.45-4.22,1.02-5.67-.32-.38-.35-.68-.81-1.16-.97-.94-.31-1.75.69-2.35,1.48-.6.79-1.83,1.51-2.47.75-.39-.47-.28-1.29-.79-1.63-.44-.3-1.03-.02-1.56.03-1.15.09-2.04-.93-3.04-1.51-1-.58-2.78-.25-2.63.9-.62-1.53-1.23-3.05-1.85-4.58-.13-.33-.32-.7-.67-.76-.26-.05-.51.11-.72.27-1.48,1.16-2.99,3.28-4.67,2.44-.73-.37-1.32-1.28-2.11-1.06-.59.16-.83.89-1.36,1.17-1.14.61-2.12-1.05-3.27-1.64-1.14-.58-2.49-.05-3.74.21-3.57.75-4.61-3.74-5.09-6.43-.13-.72-.29-1.56-.95-1.88-.7-.34-1.55.18-1.95.85-.4.67-.52,1.47-.84,2.18-1.91,4.21-9.7,3.06-13.36,3.09-1.82.01-3.64,0-5.46-.03.45.76.95,1.52,1.22,2.34.57,1.71-.32,2.89-.3,4.51.01,1.02.64,1.46.89,2.37.39,1.41-.34,2.69-.22,4.11.13,1.52,1.06,2.86,1.78,4.16,1.83,3.35,2.69,7.22,2.45,11.03-.08,1.33-.3,2.66-.12,3.98.18,1.34.75,2.59,1.21,3.86,1.18,3.25,1.63,6.77,1.32,10.22-.16,1.73-.47,3.63.48,5.1.43.67,1.09,1.17,1.5,1.85.55.91.61,2.03.65,3.1.27,7.34.54,14.69.82,22.03.03.86.06,1.72.07,2.59,17.77-1.05,35.55-2.19,53.19-4.51-.09-1.01-.15-2.03-.17-3.04Z"/>
      <path class="cls-1" d="M325.96,168.76c3.69-.71,7.44-1.12,11.2-1.25,1.63-.06,3.26.11,4.82-.33,1.51-.42,2.51-1.09,4.21-.75,1.64.32,2.88,1.69,4.26,2.64.95-4.66,5.14-9.09,3.21-13.41-.19-.42-.44-.84-.5-1.3-.26-2.01,2.6-2.54,4.51-3.25,3.31-1.22,4.96-5.66,3.24-8.75-1.19-2.13-3.59-3.49-4.4-5.79-.21-.6-.35-1.32-.91-1.63-.54-.3-1.2-.07-1.82-.08-1.89-.04-2.9-2.2-3.36-4.03-.68-2.69-1.13-5.45-1.37-8.21-17.64,2.32-35.42,3.46-53.19,4.51.03,2.3-.06,4.59-.63,6.81-.22.85-.5,1.69-.53,2.57-.02.77.16,1.53.35,2.28.65,2.63,1.31,5.3,2.65,7.66.41.71.87,1.39,1.25,2.12.81,1.56,1.23,3.3,1.82,4.93.58,1.81,1.15,3.61,1.72,5.41.44,1.49,1,2.97,1.28,4.51.33,1.87.24,3.8.62,5.67.07.33.15.66.24,1,2.89-.12,5.82-.48,8.61-1.01,4.29-.8,8.38.53,12.7-.29Z"/>
      <path class="cls-1" d="M369.59,229.28c-.07.35-.13.72-.01,1.05.37,1.06,1.91.82,2.98.47,1.2-.39,2.44-.64,3.7-.76.25-1.09.49-2.18.71-3.27.3-1.51.6-3.09,1.55-4.3.82-1.04,1.95-1.62,3.22-1.96-.16-2.21-.31-4.42-.47-6.63-.02-.23-.03-.46-.04-.68-1.61-.72-3.61-.92-4.85-2.2-1.81-1.88-1.04-5.04-2.16-7.39-1.85-3.9-8.41-4.88-8.51-9.2-.05-2.14,1.61-4.63.12-6.16-1.26-1.3-3.44-.39-4.97.57,0-3.17-1.43-6.32-3.81-8.41-1.34-1.18-2.95-2.03-4.22-3.29-1.91-1.91-2.87-4.74-2.51-7.42.03-.21.07-.43.12-.64-1.38-.95-2.62-2.32-4.26-2.64-1.71-.34-2.7.33-4.21.75-1.56.44-3.19.28-4.82.33-3.76.13-7.51.55-11.2,1.25-4.33.83-8.41-.51-12.7.29-2.79.52-5.73.89-8.61,1.01.34,1.26.88,2.51,1.82,3.26.52.41.95.92,1.33,1.45,1.8,2.56,6.08,3.61,6.33,6.77.12,1.44-.74,2.84-.61,4.28.22,2.58,2.84,3.18,4.09,5.07,1.81,2.74,1.6,6.71,1.51,9.85-.29,9.64,1.11,19.2,2.42,28.78,16.26-2.8,32.7-4.41,49.12-5.99-.36,1.92-.72,3.84-1.08,5.76Z"/>
      <g>
        <path class="cls-1" d="M362.88,265.26c.65-3.36,2.38-6.39,3.95-9.43,4.2-8.16,7.36-16.84,9.42-25.79-1.26.12-2.5.37-3.7.76-1.07.35-2.61.59-2.98-.47-.12-.34-.05-.7.01-1.05.36-1.92.72-3.84,1.08-5.76-16.42,1.59-32.87,3.19-49.12,5.99.81,5.97,1.59,11.94,1.89,17.94.39,7.59.39,15.58,1.22,23.14,1,.89,2.41,1.32,3.74,1.13.82-.12,1.82-.4,2.36.23.28.32.31.78.33,1.21.13,2.51.19,5.02.22,7.53,10.63-2.1,21.39-3.55,32.2-4.36-.74-3.67-1.34-7.36-.61-11.08Z"/>
        <path class="cls-1" d="M393.51,328.3c-.34-1.32-1.49-2.4-2.84-2.64-.59-.11-1.2-.07-1.77-.24-1.01-.3-1.77-1.3-1.79-2.35-.02-1.05.7-2.08,1.7-2.42.46-.16.98-.18,1.41-.41,1.07-.58,1.03-2.32.09-3.09-.95-.77-2.4-.63-3.41.04-.52.35-.97.82-1.54,1.08-.57.26-1.36.22-1.7-.3-.49-.76.21-2.03-.52-2.55-.6-.43-1.36.21-1.91.71-1.31,1.2-3.34,1.8-4.92.98-1.58-.82-2.13-3.34-.73-4.44,1.39-1.09,3.38-.26,5.05.34,1.62.58,3.34.89,5.06.91.15,0,.31,0,.46-.01-.14-.89-.46-1.75-.93-2.52-.74-1.18-1.87-2.23-2-3.62-.1-1.09.45-2.23.04-3.24-.45-1.09-1.85-1.47-3.02-1.3s-2.24.76-3.39,1.01c-2.55.56-5.3-.51-7.79.29-1.37.44-2.52,1.41-3.86,1.95-1.34.54-3.14.48-3.91-.74-.54-.84-.39-1.94-.2-2.92,1.26-6.53,4.48-12.42,3.72-19.17-.28-2.44-.83-4.87-1.32-7.32-10.81.8-21.57,2.26-32.2,4.36.03,2.91-.01,5.82-.13,8.73-.09,2.27-.22,4.57.21,6.81.59,3.07,2.21,5.84,4.01,8.4,1.38,1.95,2.96,4.14,2.52,6.48-.3,1.64-1.56,3-1.77,4.66-.14,1.14.24,2.27.45,3.4.53,2.93-.07,6.05-.15,9.03,1.98-.63,4-.92,6.07-.61,1.42.21,2.79.7,4.19,1,1.94.41,7.49,1.44,9-.25,1.65-1.84-.09-4.03,3.61-2.84.22.07.46.03.7.02,1.63-.08,4.71,3.44,5.74,1.52.39-.72-.11-1.61-.7-2.18-.6-.57-1.34-1.06-1.61-1.83-.11-.31-.13-.64-.14-.97,0-.22,0-.46.11-.65.22-.35.76-.35,1.1-.12,1.27.88,2.55,2.73,2.8,4.26.29,1.84-.09,3.75.27,5.58.36,1.83,1.92,3.7,3.75,3.36,1.09-.2,1.89-1.1,2.79-1.74.9-.64,2.29-.98,3.03-.16.25.28.42.69.79.8.29.09.59-.05.85-.2,1.29-.74,2.42-1.88,2.82-3.31.4-1.43-.1-3.16-1.39-3.91-.79-.46-1.95-.73-2.01-1.64-.07-1.02,1.5-1.36,2.33-.76.83.61,1.19,1.65,1.86,2.43,1.88,2.17,5.77,1.9,7.24,4.35.51.85.96,2.13,1.94,2,.27-.04.51-.19.71-.36,1.06-.86,1.55-2.36,1.21-3.68Z"/>
      </g>
      <g>
        <g>
          <path class="cls-1" d="M324.65,270.59c-.83-7.56-.83-15.55-1.22-23.14-.44-8.57-1.83-17.08-2.92-25.6-14.59.66-29.18,1.33-43.77,1.99-9.46.43-18.86-.02-28.32.15-3.95.07-8.66.94-12.49-.37,0,0-.02,0-.03-.01,0,.06,0,.12,0,.17-3.39.05-6.87.22-10.25-.01-.42,0-.69,3.18-.86,7.54,11.26.85,22.57,1.05,33.85.57.12,9.2.24,18.4.36,27.6,0,.33.05.73.35.87.2.09.43.03.64-.02,2.63-.62,4.01,1.56,6.21,1.72.73.05,1.09-.58,1.99-.3,1.07.34,1.77,1.74,2.5,2.5,1.52,1.58,3.91,2.27,6.04,1.72,1.39-.36,2.86-1.19,4.17-.6,1.1.49,1.56,1.77,2.24,2.77,1.02,1.49,1.66,1.09,3.06.65.53-.17,1.16-.79,1.78-.65.77.18.93,1.23,1.66,1.58.75.37,1.6-.17,2.39-.43,2.01-.67,4.12.45,6.01,1.41,1.89.96,4.26,1.77,6.02.59.89-.6,1.54-1.66,2.6-1.83.5-.08,1.03.06,1.52-.07.83-.22,1.3-1.13,2.09-1.48,1.38-.62,2.88.71,4.39.66.75-.02,1.47-.39,2.22-.3,1.21.14,1.93,1.37,2.9,2.1,1.33.99,3.2.99,4.76.43.09-.03.17-.08.25-.11-.04-.03-.09-.07-.13-.1Z"/>
          <g>
            <g>
              <g>
                <path class="cls-1" d="M292.43,90.82c.06-2.91-.41-5.84-1.41-8.58-.46-1.27-1.03-2.52-1.21-3.86-.18-1.32.04-2.66.12-3.98.24-3.81-.62-7.68-2.45-11.03-.71-1.3-1.65-2.64-1.78-4.16-.12-1.42.62-2.69.22-4.11-.25-.91-.88-1.36-.89-2.37-.02-1.61.87-2.8.3-4.51-.28-.83-.78-1.58-1.22-2.34-3.34-.04-6.67-.11-10.01-.1-12.65.06-25.31.12-37.96.18-4.87.02-9.75.04-14.63-.02-.64,15.16-1.27,30.32-1.91,45.47,24.26.99,48.58.79,72.82-.59Z"/>
                <path class="cls-1" d="M295.8,124.53c-.27-7.34-.54-14.69-.82-22.03-.04-1.07-.09-2.18-.65-3.1-.41-.68-1.07-1.18-1.5-1.85-.94-1.46-.63-3.36-.48-5.1.05-.54.07-1.09.08-1.63-24.25,1.38-48.56,1.58-72.82.59-.6,14.27-1.2,28.54-1.8,42.81,17.84.32,35.69.64,53.53.96,1.14.02,2.31.04,3.39.41,2.04.68,3.7,2.52,5.85,2.54.93,0,1.82-.34,2.73-.52,4.22-.84,8.16,1.89,12.28,3.3-.19-.71-.37-1.42-.54-2.13-.18-.75-.37-1.51-.35-2.28.02-.88.31-1.72.53-2.57.78-3.05.67-6.25.55-9.39Z"/>
              </g>
              <path class="cls-1" d="M307.8,174.77c-.38-.54-.81-1.05-1.33-1.45-1.2-.94-1.74-2.7-2.06-4.26-.38-1.86-.29-3.79-.62-5.67-.27-1.54-.84-3.01-1.28-4.51-.57-1.81-1.15-3.61-1.72-5.41-.59-1.63-1-3.37-1.82-4.93-.38-.73-.85-1.41-1.25-2.12-.98-1.72-1.59-3.61-2.11-5.53-4.13-1.41-8.06-4.13-12.28-3.3-.91.18-1.8.53-2.73.52-2.15-.02-3.81-1.85-5.85-2.54-1.08-.36-2.25-.39-3.39-.41-17.84-.32-35.69-.64-53.53-.96-.42,9.94-.83,19.87-1.25,29.81,7.22-.12,14.28.3,21.49.73-.07,4.73-.18,9.46-.32,14.19,1.41.16,2.85.15,4.27.12,12.69-.23,25.38-.45,38.07-.68,10.06-.18,20.1-.95,30.17-1.39-.93-.66-1.83-1.36-2.45-2.23Z"/>
            </g>
            <path class="cls-1" d="M319.12,200.74c.09-3.13.3-7.1-1.51-9.85-1.25-1.89-3.88-2.5-4.09-5.07-.12-1.44.73-2.84.61-4.28-.17-2.09-2.08-3.25-3.88-4.54-10.07.43-20.11,1.21-30.17,1.39-12.69.23-25.38.45-38.07.68-1.42.03-2.86.04-4.27-.12-.43,14.9-1.13,29.78-1.83,44.67,0,0,.02,0,.03.01,3.82,1.31,8.53.44,12.49.37,9.46-.17,18.86.28,28.32-.15,14.59-.66,29.18-1.33,43.77-1.99-.9-7.02-1.6-14.05-1.39-21.12Z"/>
          </g>
        </g>
        <path class="cls-1" d="M337.91,311.11c.43-2.35-1.15-4.53-2.52-6.48-1.8-2.56-3.42-5.33-4.01-8.4-.43-2.23-.3-4.53-.21-6.81.21-5.42.18-10.84-.09-16.26-.02-.42-.06-.88-.33-1.21-.54-.63-1.54-.35-2.36-.23-1.28.18-2.62-.21-3.61-1.03-.09.03-.16.08-.25.11-1.56.56-3.43.56-4.76-.43-.98-.72-1.7-1.95-2.9-2.1-.74-.09-1.47.28-2.22.3-1.51.05-3.01-1.28-4.39-.66-.79.35-1.26,1.26-2.09,1.48-.49.13-1.02-.01-1.52.07-1.06.17-1.7,1.24-2.6,1.83-1.76,1.18-4.13.37-6.02-.59-1.89-.96-4-2.08-6.01-1.41-.79.27-1.64.8-2.39.43-.73-.36-.89-1.4-1.66-1.58-.62-.15-1.25.48-1.78.65-1.39.44-2.04.84-3.06-.65-.68-1-1.14-2.28-2.24-2.77-1.31-.59-2.78.25-4.17.6-2.13.54-4.52-.14-6.04-1.72-.73-.76-1.43-2.16-2.5-2.5-.9-.29-1.27.35-1.99.3-2.19-.16-3.57-2.34-6.21-1.72-.21.05-.45.11-.64.02-.3-.14-.34-.54-.35-.87-.12-9.2-.24-18.4-.36-27.6-11.28.48-22.59.29-33.85-.57-.35,9.08-.29,23.3-.3,24.78-.1,13.79.16,27.46-.85,41.18-2.19.3-4.11-.05-6.31-.18-6.55-.37-13.1-.73-19.65-1.1-3.28-.18-6.55-.37-9.83-.55-2.68-.15-5.28-.77-7.94-.37.34,1.39,1.44,1.93,2.21,3.01.13.19.24.41.35.62.57.08,1.05.27,1.57.89.82.99.53,2.79,2.03,3.25.47.15.99.06,1.47.17,1.63.39,1.82,2.57,2.27,4.19.51,1.85,1.84,3.45,3.56,4.3,1.68.83,3.95,1.21,4.56,2.99.2.58.16,1.2.28,1.8.43,2.26,2.82,3.67,3.58,5.84.5,1.44.23,3.01.32,4.53.2,3.38,2.62,3.11,4.43,5.08,1.17,1.28.58,3.64,1.94,4.72.57.46,1.34.55,2.05.68,2.97.53,5.77,1.96,7.94,4.05.54.52,1.16,1.12,1.9,1.01.82-.13,1.22-1.04,1.71-1.71.49-.67,1.67-1.09,2.04-.34,1.63-1.36.6-4.47,2.28-5.77.95-.73,2.37-.51,3.37-1.18.7-.47,1.09-1.3,1.8-1.74.79-.49,1.79-.39,2.71-.28,1.41.17,2.83.34,4.24.5,1.32.16,2.76.37,3.68,1.34.83.88,1.02,2.17,1.61,3.22,1.24,2.2,4.01,3.03,5.69,4.92,2.07,2.33,2.17,5.88,3.99,8.41.85,1.19,2.05,2.09,2.96,3.24,1.88,2.37,2.52,5.75,5.02,7.46.97.66,2.17,1.03,2.92,1.92,1.27,1.5.79,3.74.95,5.7.16,1.99,1.11,3.9,2.58,5.25.77.7,1.74,1.37,1.87,2.4.07.55-.14,1.1-.17,1.66-.1,1.83,1.62,3.2,3.24,4.06,3.07,1.62,6.43,2.61,9.77,3.58,2.73.8,5.45,1.59,8.18,2.39,1.78.52,4.65,1.72,5.23-.04.18-.54-.26-1.1-.76-1.37-.5-.28-1.08-.41-1.52-.76-.94-.76-.58-3.66-.97-4.82-.8-2.4-1.61-4.8-2.41-7.2-.13-.4-.27-.83-.18-1.24.17-.76,1.01-1.15,1.47-1.77.7-.94.35-2.48-.69-3.02-.72-.37-1.88-.64-1.71-1.44.09-.44.58-.65,1-.81.94-.35,1.89-.84,2.4-1.71.51-.86.33-2.18-.58-2.6-.24-.11-.53-.16-.72-.34-.64-.6.38-1.59,1.26-1.65s2.01.02,2.37-.78c.24-.53-.04-1.15-.38-1.63-.34-.48-.75-.95-.79-1.54-.04-.58.56-1.23,1.08-.96.44.23.47.9.89,1.16.45.28,1.03-.07,1.44-.41.73-.6,1.47-1.2,2.2-1.8.27-.22.56-.46.64-.8.16-.6-.36-1.14-.63-1.71-.27-.56.06-1.52.64-1.3.26.1.38.4.56.61.78.93,2.27.09,3.14-.75.24-.23.49-.54.39-.85-.07-.21-.29-.33-.45-.49-.6-.61-.14-1.75.64-2.1.78-.36,1.83-.19,2.68-.06,1.86.29,3.79.33,5.6-.22,1.8-.54,3.47-1.71,4.32-3.39.62-1.22.81-2.65,1.65-3.73.58-.75,1.45-1.28,1.86-2.13.61-1.25.05-2.77.39-4.12.33-1.31,1.45-2.25,2.5-3.1.14-.11.29-.22.46-.21.39.02.45.58.32.94-.13.36-.32.8-.08,1.1.34.42,1.13.07,1.48.47.51.58-.38,1.57.26,2.07.64.51,1.86-.19,2.41-.51,2.62-1.53,5.38-3.15,8.26-4.06.08-2.98.68-6.1.15-9.03-.21-1.13-.58-2.26-.45-3.4.2-1.66,1.46-3.02,1.77-4.66Z"/>
      </g>
      <path class="cls-1" d="M108.85,47.36c.25,1.88,1.04,3.65,1.82,5.38,2.07,4.57,4.22,9.27,7.88,12.72.47.44.99.91,1.08,1.55.1.67-.31,1.3-.64,1.89-1.02,1.88-1.32,4.14-.8,6.22.16.63.38,1.29.2,1.91-.15.51-.56.89-.88,1.3-1.04,1.32-.29,1.98-.56,3.44-.1.54-.34,1.08-.21,1.62.33,1.31,5.08-.84,6.22,1.7.43.95.18,2.09.58,3.05.5,1.2,1.95,1.97,1.99,3.27.04,1.21-1.24,2.27-.95,3.45.25,1,1.43,1.39,2.18,2.1.83.79,1.1,1.99,1.36,3.12.25,1.12.58,2.32,1.47,3.04.85.68,2.05,0,3.07.13.63.08.9.56,1.59.6.83.05,1.59-.57,2.46-.47,1.64.18,2.93,2.38,4.45,1.74,1.12-.48,1.18-2.14,2.17-2.85,1.57-1.12,3.52.99,4.7,1.82-.18-1.85-.18-3.71,0-5.56.02-.27.06-.56.25-.76.27-.29.72-.27,1.11-.23,23.26,2.39,46.52,4.8,69.66,8.17.84-19.92,1.67-39.84,2.51-59.76-5.71-.07-11.41-.24-17.11-.66-13.22-.96-26.31-3.2-39.36-5.51-17.8-3.15-35.57-6.39-53.17-10.24-.8,3.75-1.6,7.51-2.4,11.26-.46,2.17-.93,4.39-.64,6.58Z"/>
      <path class="cls-1" d="M33.3,49.8c.47.13.86.46,1.24.78,1.38,1.18,2.83,2.49,3.25,4.25.28,1.16.07,2.39.27,3.57.21,1.18,1.09,2.42,2.29,2.34.65-.04,1.23-.47,1.87-.48,1.22,0,1.99,1.42,3.17,1.71,1.24.3,2.51-.73,3.76-.45,1.37.3,2.17,2.05,3.57,2.07.81.02,1.51-.58,2.31-.74,1.88-.39,3.36,1.59,5.18,2.18,2.02.66,4.43-.43,6.28.63.89.51,1.56,1.48,2.58,1.59.83.09,1.59-.43,2.39-.68,1.43-.45,2.97-.03,4.4.39,2.91.85,5.83,1.71,8.74,2.56,3.06.9,6.14,1.8,9.3,2.22,1.78-14.97,5.09-29.7,8.58-44.37-17.83-4.15-35.46-9.03-52.77-15.23-1.42,2.25,2.5,4.88,1.72,7.43-.28.92-1.14,1.6-1.33,2.55-.38,1.96,2.3,3.57,1.86,5.51-.28,1.24-1.69,1.85-2.38,2.92-1,1.57.13,3.3-.46,4.81-.52,1.33-2.37,2.4-3.55,3.17-.36.23-.73.46-1.15.52-1.39.22-2.42-1.43-2.31-2.83.02-.31.09-.64.31-.87.43-.47,1.19-.33,1.83-.35,1.28-.02,3.24-1.18,3-2.68-.18-1.16-2.02-1.38-2-2.62.02-1.07,1.55-1.33,2.16-2.2.5-.7.29-1.73-.26-2.4-.54-.67-1.35-1.07-2.12-1.45-3.95-1.94-7.91-3.88-11.86-5.81-.63-.31-1.3-.63-2-.56-1.99.18-2.42,2.88-2.29,4.88.24,3.61.49,7.23.73,10.84.03.48.07.98.31,1.39.33.57,1.02.98,1.06,1.64.05.83-.94,1.33-1.24,2.11-.61,1.65,2.08,3.57.93,4.89-.41.47-1.14.55-1.55,1.02-.6.68-.2,1.76.37,2.47.57.71,1.31,1.38,1.39,2.28-.05-.03-.11-.05-.17-.07.41.41.85.76,1.37.9.39.1.81.06,1.2.17Z"/>
      <path class="cls-1" d="M88.15,102.16c.22-1.35.36-2.81-.25-4.03-.26-.52-.64-.97-.89-1.5-.98-2.09.46-4.51,2.06-6.16,1.61-1.66,3.57-3.28,3.9-5.57.12-.84,0-1.73.31-2.52.48-1.26,1.87-1.92,2.61-3.05,1.3-1.98.22-4.67-1.27-6.51-.3-.37-.62-.73-.94-1.09-3.08-.44-6.09-1.31-9.08-2.19-2.91-.85-5.83-1.71-8.74-2.56-1.44-.42-2.98-.84-4.4-.39-.8.25-1.56.77-2.39.68-1.02-.11-1.69-1.08-2.58-1.59-1.85-1.06-4.26.03-6.28-.63-1.82-.59-3.3-2.57-5.18-2.18-.8.17-1.49.76-2.31.74-1.4-.03-2.2-1.78-3.57-2.07-1.25-.27-2.52.76-3.76.45-1.19-.29-1.95-1.72-3.17-1.71-.65,0-1.23.43-1.87.48-1.19.08-2.08-1.16-2.29-2.34-.21-1.18,0-2.41-.27-3.57-.42-1.77-1.88-3.07-3.25-4.25-.37-.32-.76-.65-1.24-.78-.39-.11-.81-.07-1.2-.17-.52-.13-.96-.49-1.37-.9-1.06-.47-2.39.06-3.14.97-.79.96-1.09,2.21-1.39,3.42-2.29,9.17-5.78,18.05-10.34,26.33-1.68,3.05-3.5,6.02-4.88,9.22-.74,1.72-.31,2.79-1.05,4.51-1.01,2.35-1.5,4.94-1.4,7.5.04,1.09.18,2.19-.03,3.26-.17.84-.54,1.64-.82,2.45,24.41,9.04,49.3,16.82,74.53,23.24.31-9.39,4.44-18.21,5.92-27.49Z"/>
      <path class="cls-3" d="M88.18,267.34c.13-.9-.25-1.79-.56-2.65-.47-1.34-.77-2.75-.87-4.16-.03-.41-.04-.84.18-1.19.23-.37.67-.55,1.02-.81,1.61-1.14,1.58-3.59,2.86-5.1.83-.98,2.12-1.43,3.18-2.16,1.06-.73,1.97-2.06,1.46-3.25-.37-.86-1.32-1.27-2.01-1.89-1.87-1.66-1.67-4.07-1.4-6.56-7.57-9.92-14.25-20.47-20.63-31.16-4.74-7.94-10.09-15.49-15.39-23.06-4.48-6.4-8.92-12.74-13.27-19.22-.22-.32-.44-.65-.5-1.03-.05-.3,0-.6.04-.89,1.24-7.82,2.59-15.39,4.41-23.08,1.57-6.68,3.11-13.37,4.63-20.06-14.69-4.43-29.25-9.31-43.63-14.64-.22.63-.38,1.27-.32,1.93.1,1.18.86,2.25.86,3.44,0,1.79-1.68,3.09-2.28,4.78-.66,1.86.04,4.06-.85,5.83-.89,1.77-3.11,2.54-4.09,4.27-.97,1.72-.44,3.91.44,5.68.88,1.77,2.1,3.42,2.53,5.35.31,1.42.18,2.89-.02,4.33-.78,5.6-2.4,11.76.6,16.55.97,1.55,3.23,3.03,2.47,4.69-1.35,2.95-.44,6.76,2.09,8.78,1.07-.62,3.13-3.22,3.05-.27-.03,1.29-.06,2.57-.09,3.86,0,.15-.01.31-.12.41-.1.09-.26.1-.4.09-1.55-.04-1.94.12-2.08,1.77-.29,3.18.86,6.47,3.07,8.78,1.26,1.32,2.99,2.78,2.53,4.54-.23.88-.98,1.52-1.41,2.33-.85,1.59-.33,3.58.51,5.18.84,1.6,1.98,3.07,2.42,4.82.31,1.23.26,2.57.78,3.73.35.79.95,1.44,1.49,2.12,1.71,2.13,2.95,4.63,3.63,7.27.27,1.05.45,2.14.36,3.22-.16,1.99-1.2,3.92-.87,5.89.5,3.04,3.91,4.61,6.93,5.2,1.37.27,2.81.46,3.99,1.22,1.02.66,1.75,1.69,2.42,2.7,1.65,2.51,3.33,5.32,6.14,6.36,1.38.51,3.18.77,3.64,2.16.26.79-.04,1.7.3,2.47.49,1.09,1.92,1.26,3.06,1.65,3.15,1.08,4.65,4.58,5.79,7.71.78,2.13,1.56,4.4,1.11,6.63-.22,1.06-.46,2.6.6,2.86.32-.37.65-.75.97-1.12.09,1.48.53,3.11.86,4.55,8.7.81,17.38,1.88,26.02,3.18-.14-.02-.18.07-.14.22.29-.27.61-.51.93-.71,1.48-.89,3.33-1.76,3.57-3.47Z"/>
      <g>
        <path class="cls-1" d="M147.5,112.73c.31-2.94.59-5.97.21-8.88-1.19-.93-2.96-2.64-4.41-1.6-.99.71-1.05,2.37-2.17,2.85-1.52.65-2.8-1.56-4.45-1.74-.87-.1-1.63.52-2.46.47-.68-.04-.96-.52-1.59-.6-1.01-.13-2.22.56-3.07-.13-.89-.72-1.22-1.92-1.47-3.04-.25-1.12-.52-2.32-1.36-3.12-.75-.71-1.93-1.1-2.18-2.1-.29-1.18.99-2.24.95-3.45-.04-1.3-1.49-2.07-1.99-3.27-.4-.96-.15-2.1-.58-3.05-1.14-2.53-5.9-.38-6.22-1.7-.13-.53.11-1.08.21-1.62.27-1.46-.48-2.13.56-3.44.33-.42.73-.8.88-1.3.19-.62-.04-1.28-.2-1.91-.51-2.08-.22-4.34.8-6.22.33-.6.74-1.22.64-1.89-.09-.63-.61-1.11-1.08-1.55-3.65-3.44-5.81-8.14-7.88-12.72-.78-1.73-1.57-3.49-1.82-5.38-.29-2.2.17-4.42.64-6.58.8-3.75,1.6-7.51,2.4-11.26-3.14-.69-6.27-1.4-9.39-2.13-3.49,14.67-6.8,29.4-8.58,44.37-.07,0-.15-.03-.22-.04.32.36.64.72.94,1.09,1.49,1.84,2.57,4.53,1.27,6.51-.74,1.13-2.13,1.79-2.61,3.05-.31.79-.19,1.68-.31,2.52-.33,2.29-2.29,3.91-3.9,5.57-1.61,1.66-3.04,4.07-2.06,6.16.25.53.63.98.89,1.5.61,1.23.46,2.68.25,4.03-1.44,9.04-5.39,17.66-5.88,26.78.96.38,2,.63,3,.84,19.37,4.15,38.74,8.29,58.11,12.44,0,.03,0,.06,0,.09.99-3.96,1.42-8.02,2.03-12.07.87-5.81,1.49-11.66,2.1-17.5Z"/>
        <path class="cls-1" d="M149.35,97.52c-.39-.04-.84-.06-1.11.23-.18.2-.22.49-.25.76-.17,1.85-.17,3.71,0,5.56-.09-.07-.19-.14-.29-.22.38,2.91.09,5.94-.21,8.88-.61,5.84-1.23,11.69-2.1,17.5-.61,4.05-1.04,8.11-2.03,12.07-.44,4.68-.87,9.37-1.31,14.05,23.06,3.71,46.31,6.24,69.62,7.58,1.61.09,3.31.14,4.89-.14.81-19.36,1.62-38.73,2.44-58.09-23.13-3.37-46.4-5.78-69.66-8.17Z"/>
      </g>
      <path class="cls-1" d="M91.28,225.36c-.19-1.3-.37-2.86.62-3.72,1.84-1.58,4.66,1.34,6.97.58,1.63-.53,2.13-2.56,2.36-4.26,1.82-13.31,2.8-26.81,5.11-40.01,1.37-7.84,2.75-15.69,4.12-23.53,1.1-6.3,2.4-12.39,2.59-18.69-9.27-1.98-18.53-3.97-27.8-5.95-1-.21-2.04-.46-3-.84-.01.23-.03.47-.04.7-10.36-2.64-20.66-5.52-30.9-8.6-1.51,6.69-3.05,13.38-4.63,20.06-1.81,7.69-3.17,15.26-4.41,23.08-.05.3-.09.6-.04.89.07.38.29.71.5,1.03,4.35,6.49,8.79,12.82,13.27,19.22,5.3,7.57,10.65,15.12,15.39,23.06,5.99,10.03,12.24,19.92,19.24,29.3.99-4.02,1.23-8.23.63-12.34Z"/>
      <g>
        <path class="cls-1" d="M157.69,217.79c-2.65,28.16-5.08,56.33-7.27,84.53,3.19.41,6.39.79,9.61,1.07.73.06,1.49.14,2.12.51.26-2.48.41-5.04.31-7.53,6.14.73,12.28,1.47,18.43,2.2.64.08,1.14.07,1.59.14-.11-.21-.22-.43-.35-.62-.76-1.08-1.87-1.62-2.21-3.01,2.66-.41,5.25.22,7.94.37,3.28.18,6.55.37,9.83.55,6.55.37,13.1.73,19.65,1.1,2.21.12,4.12.48,6.31.18,1.01-13.72.76-27.39.85-41.18.01-2.07-.12-28.99.95-32.03-1.81-.6-3.85-.7-5.78-.78-20.74-.76-41.4-2.77-61.97-5.51Z"/>
        <path class="cls-3" d="M216.57,164.03c0-.08,0-.16,0-.24-1.58.29-3.28.23-4.89.14-16.1-.92-32.17-2.43-48.17-4.49-2.05,19.44-3.99,38.89-5.83,58.35,20.58,2.73,41.23,4.75,61.97,5.51,1.94.07,3.97.18,5.78.78.06-.18.13-.29.21-.29,3.38.23,6.86.06,10.25.01.93-19.67,1.86-39.35,2.16-59.04-7.21-.43-14.27-.85-21.49-.73Z"/>
        <path class="cls-1" d="M102.35,209.06c-.35,2.97-.71,5.94-1.11,8.9-.23,1.7-.73,3.73-2.36,4.26-2.31.76-5.13-2.16-6.97-.58-1,.86-.81,2.42-.62,3.72.6,4.1.36,8.31-.63,12.34.46.62.92,1.25,1.39,1.87-.27,2.49-.47,4.9,1.4,6.56.7.62,1.65,1.04,2.01,1.89.51,1.18-.4,2.52-1.46,3.25-1.06.73-2.35,1.18-3.18,2.16-1.28,1.5-1.25,3.96-2.86,5.1-.36.25-.79.43-1.02.81-.22.35-.21.78-.18,1.19.11,1.42.4,2.82.87,4.16.3.86.69,1.74.56,2.65-.25,1.7-2.1,2.58-3.57,3.47-.32.19-.64.44-.93.71.17.73,1.98,3.02,2.31,3.25,4.39,3.01,9.15,5.6,13.64,8.53,7.62,4.98,15.11,10.39,22.97,14.99,3.69,2.16,7.91,1.7,12.07,2.11,5.28.51,10.51,1.26,15.75,1.93,2.19-28.19,4.62-56.37,7.27-84.53-18.51-2.46-36.95-5.5-55.34-8.73Z"/>
        <path class="cls-1" d="M163.51,159.45c-7.17-.92-14.32-1.94-21.45-3.09.44-4.71.88-9.43,1.32-14.14-10.1-2.16-20.21-4.32-30.31-6.49-.19,6.3-1.49,12.38-2.59,18.69-1.37,7.84-2.75,15.69-4.12,23.53-1.8,10.27-2.79,20.71-4,31.11,18.39,3.23,36.83,6.27,55.34,8.73,1.83-19.46,3.77-38.91,5.83-58.35Z"/>
      </g>
    </g>
    <path class="cls-1" d="M180.88,298.57c-6.14-.73-12.28-1.47-18.43-2.2.1,2.49-.05,5.05-.31,7.53-.63-.38-1.39-.45-2.12-.51-8.51-.74-16.87-2.17-25.37-2.99-4.15-.4-8.37.06-12.07-2.11-7.85-4.6-15.34-10.01-22.97-14.99-4.49-2.93-9.24-5.53-13.64-8.53-.39-.27-2.98-3.59-2.17-3.46-8.64-1.31-17.32-2.37-26.02-3.18-.34-1.44-.77-3.08-.86-4.55-.32.37-.65.75-.97,1.12-1.05-.26-.81-1.79-.6-2.86.46-2.22-.33-4.49-1.11-6.63-1.14-3.13-2.64-6.63-5.79-7.71-1.13-.39-2.57-.55-3.06-1.65-.34-.76-.03-1.68-.3-2.47-.47-1.39-2.27-1.65-3.64-2.16-2.81-1.05-4.49-3.85-6.14-6.36-.67-1.02-1.39-2.04-2.42-2.7-1.18-.76-2.62-.95-3.99-1.22-3.02-.59-6.43-2.16-6.93-5.2-.32-1.97.72-3.9.87-5.89.08-1.08-.1-2.17-.36-3.22-.68-2.64-1.92-5.14-3.63-7.27-.54-.68-1.14-1.33-1.49-2.12-.52-1.16-.47-2.49-.78-3.73-.44-1.75-1.58-3.23-2.42-4.82-.84-1.6-1.36-3.58-.51-5.18.43-.81,1.18-1.45,1.41-2.33.46-1.76-1.27-3.22-2.53-4.54-2.21-2.31-3.36-5.59-3.07-8.78.15-1.64.53-1.81,2.08-1.77.14,0,.29,0,.4-.09.11-.1.12-.26.12-.41.03-1.29.06-2.57.09-3.86.07-2.95-1.98-.35-3.05.27-2.53-2.02-3.44-5.83-2.09-8.78.76-1.66-1.5-3.14-2.47-4.69-3-4.79-1.38-10.95-.6-16.55.2-1.44.34-2.91.02-4.33-.43-1.93-1.65-3.58-2.53-5.35s-1.41-3.96-.44-5.68c.98-1.73,3.2-2.5,4.09-4.27.89-1.77.18-3.96.85-5.83.6-1.68,2.28-2.99,2.28-4.78,0-1.19-.76-2.26-.86-3.44-.12-1.51.85-2.89,1.14-4.38.21-1.07.07-2.17.03-3.26-.1-2.56.39-5.14,1.4-7.5.74-1.72.31-2.79,1.05-4.51,1.37-3.2,3.2-6.17,4.88-9.22,4.56-8.28,8.04-17.16,10.33-26.33.3-1.2.6-2.46,1.39-3.42.79-.96,2.22-1.51,3.3-.9-.08-.9-.83-1.57-1.39-2.28-.57-.71-.97-1.79-.37-2.47.41-.47,1.14-.54,1.55-1.02,1.15-1.33-1.54-3.25-.93-4.89.29-.78,1.29-1.28,1.24-2.11-.04-.66-.73-1.06-1.06-1.64-.24-.42-.28-.91-.31-1.39-.24-3.61-.49-7.23-.73-10.84-.14-2,.29-4.7,2.29-4.88.7-.06,1.37.26,2,.56,3.95,1.94,7.91,3.88,11.86,5.81.78.38,1.58.78,2.12,1.45.54.67.76,1.69.26,2.4-.62.87-2.15,1.13-2.16,2.2-.02,1.24,1.82,1.47,2,2.62.24,1.5-1.72,2.66-3,2.68-.64.01-1.4-.13-1.83.35-.21.23-.28.56-.31.87-.11,1.4.92,3.05,2.31,2.83.42-.07.8-.29,1.15-.52,1.18-.77,3.03-1.83,3.55-3.17.59-1.51-.54-3.24.46-4.81.68-1.07,2.09-1.68,2.38-2.92.44-1.95-2.24-3.55-1.86-5.51.18-.95,1.05-1.62,1.33-2.55.77-2.55-3.14-5.18-1.72-7.43,37.36,13.38,76.26,20.68,115.33,27.6,13.05,2.31,26.14,4.55,39.36,5.51,10.56.77,21.15.72,31.73.67,12.65-.06,25.31-.12,37.96-.18,5.15-.02,10.31.16,15.46.13,3.66-.03,11.44,1.12,13.36-3.09.32-.71.44-1.51.84-2.18.4-.67,1.25-1.19,1.95-.85.66.32.82,1.16.95,1.88.48,2.69,1.52,7.18,5.09,6.43,1.25-.26,2.61-.79,3.74-.21,1.15.59,2.13,2.24,3.27,1.64.54-.29.78-1.01,1.36-1.17.79-.22,1.38.7,2.11,1.06,1.68.84,3.19-1.29,4.67-2.44.21-.16.46-.32.72-.27.35.06.53.43.67.76.62,1.53,1.23,3.05,1.85,4.58-.15-1.15,1.63-1.48,2.63-.9,1,.58,1.89,1.61,3.04,1.51.53-.04,1.12-.32,1.56-.03.51.34.39,1.16.79,1.63.64.76,1.87.05,2.47-.75s1.4-1.79,2.35-1.48c.49.16.79.63,1.16.97,1.45,1.34,3.74.78,5.67.32,1.93-.45,4.48-.4,5.26,1.41-.22,1.64-1.93,2.86-3.4,3.62-1.47.76-3.1,1.22-4.44,2.19-1.1.79-1.94,1.87-2.77,2.94-2.9,3.74-5.8,7.48-8.7,11.22.49.85,1.73.76,2.67.49,2.37-.68,4.62-1.75,6.63-3.16.76-.54,1.97-1.05,2.47-.27.79,1.23-.98,2.52-.52,3.53.6,1.31,3.83.7,4.97.4,2.77-.74,3.5-3.79,6.32-4.33.58-.11,1.27-.08,1.67-.51.34-.37.34-.93.58-1.37.24-.45.7-.73,1.12-1.02,2.37-1.61,4.11-3.99,6.17-5.99,2.06-2,4.76-3.7,7.61-3.4.33,1.37-.65,2.72-1.75,3.6-1.11.87-2.43,1.53-3.27,2.66-.57.77-.98,2.53-.05,3.22,1.06.8,1.75-.43,2.55-.8,1.15-.54,2.71-.22,3.72.48.86.59,1.47,1.46,2.25,2.15,1.87,1.66,4.7,2.16,7.03,1.23,1.36.77,2.19.53,3.39-.47.69-.57,1.16-1.37,1.82-1.97.73-.67,1.66-1.08,2.58-1.48,2.3-1.01,4.6-2.01,6.9-3.02.28-.12.58-.24.87-.14.96.34-.17,2.03.18,2.75.32.68,1.32.82,1.62,1.5.14.3.11.65.14.99.03.33.18.7.49.81.79.26,2.77-1.5,3.57-1.73,2.57-.75,4.84,1.76,6.36,3.97-.06,1.17-1.83,1.11-2.91.66-1.08-.46-2.83-.57-2.94.6-.04.46.25.94.06,1.36-.29.66-1.27.43-1.91.1-2.08-1.08-4.76-2.07-6.6-.63-1,.77-1.48,2.1-2.54,2.77-.89.56-2.05.57-2.89,1.2-.85.64-1.17,1.74-1.63,2.69-.46.96-1.34,1.92-2.39,1.76.04-.6.8-1.91.29-2.42-.43-.44-1.74.11-1.95.57-1.2,2.61-1.58-.59-2.64-.96-.99-.34-.9.89-.84,1.57.17,1.91-.03,3.54-1.35,5.11-.85,1.01-2.04,1.86-2.3,3.16-.16.81.1,1.65.09,2.47-.03,2.77-2.97,4.87-2.98,7.64,0,.43.09.89.41,1.17.69.6,1.75-.07,2.28-.8,1.58-2.19,1.82-5.07,2.98-7.51.43-.9,1.15-1.84,2.14-1.85,2.23-.03.18,6.34-.22,7.45-.48,1.36-1.13,2.74-1.01,4.18.05.65.26,1.28.23,1.93-.07,1.72-1.76,3.16-1.5,4.86.08.53.35,1.02.44,1.55.19,1.08-.36,2.12-.74,3.14-1.11,2.97-.85,6.43.69,9.2.33.59.71,1.15.92,1.79.46,1.39.05,2.9.05,4.37,0,1.98.75,3.87,1.48,5.7.77,1.93,1.66,3.99,3.45,5.04.38.23.81.4,1.26.42.5.02.99-.16,1.44-.38,2.8-1.34,4.74-4.08,5.79-7,1.05-2.92,1.33-6.06,1.6-9.15.22-2.51.42-5.14-.6-7.45-.61-1.37-1.61-2.52-2.35-3.82-1.48-2.6-1.87-5.69-1.83-8.68.03-2.99.46-5.97.46-8.96,0-.87-.02-1.78.34-2.58.7-1.51,2.64-2.22,3.16-3.8.19-.59.52-1.46,1.08-1.2.24.11.33.39.37.65.14.77.08,1.58.33,2.32.26.74,1.01,1.41,1.76,1.19.4-.11.71-.46.88-.84.47-1.05.09-2.25-.09-3.39-.17-1.14.06-2.57,1.14-2.97.45-.17.96-.11,1.41-.26.45-.16.84-.72.56-1.1-.18-.25-.54-.28-.83-.37-1.22-.39-1.49-2.14-.82-3.23.88-1.44,3.06-2.7,4.7-1.9,1,.49,1.79,1.36,2.85,1.71.74.24,1.54.19,2.32.22,1.48.04,2.96.35,4.34.89.26.1.52.22.73.41.26.23.43.58.75.71.5.2,1.07-.21,1.58-.06.71.2.74,1.21.45,1.88-.29.67-.76,1.37-.55,2.08.11.39.42.69.69.99,2.1,2.31,2.73,5.85,1.56,8.74-.35.88-.86,1.72-.97,2.66-.1.9.18,1.88-.25,2.68-.46.87-1.57,1.19-2.2,1.95-.72.87-.59,2.35.32,3.02.91.68,2.42.33,2.88-.7.53-1.19.82-1.84,1.35-3.04.39-.9.76-1.82,1.34-2.61.58-.79,1.4-1.46,2.36-1.62.86-.14,1.78.14,2.41.75.48.47.78,1.1,1.06,1.72.7,1.51,1.4,3.03,2.1,4.54,1.42,3.06,2.97,6.24,3.02,9.61.01.82-.11,1.78-.8,2.23-.38.25-.86.29-1.29.44-1.77.6-2.38,2.81-2.3,4.67.08,1.86.58,3.78-.01,5.55-.55,1.63-3.83,4.49-1.83,6.17.73.62,1.78.71,2.74.63s1.92-.28,2.87-.14c.23.03.48.11.58.31.11.21.02.47.04.71.05.51.64.82,1.14.76,2.66-.33,4.25-3.96,6.79-4.83,1.64-.56,3.44-.83,4.84-1.86,1.8-1.31,2.63-3.62,4.33-5.06,1.28-1.08,2.93-1.59,4.37-2.45,3.38-2.01,5.31-5.73,8.15-8.45,1.62-1.55,3.55-2.79,4.93-4.57,1.37-1.77,2.07-4.36.85-6.25-.88-1.36-2.71-2.55-2.18-4.08.3-.87,1.25-1.29,2.11-1.62l4.03-1.54c.98-.37,1.98-.75,3.03-.8.9-.03,1.8.18,2.7.21,3.14.08,5.66-2.11,8.08-3.82,2.19-1.54,8.88-3.07,6.16-6.77-.34-.46-.82-.83-1.01-1.37-.47-1.37,1.14-3.2.05-4.15-.77-.68-2.11,0-2.96-.59-.62-.43-.67-1.37-.36-2.05.77-1.68,2.46-2.63,3.2-4.39.77-1.84.86-3.89,1.72-5.7.68-1.43,1.8-2.6,2.81-3.82,1.51-1.81,2.87-3.85,4.92-5.01,1.25-.71,2.68-1.04,4.06-1.45,3.66-1.08,7.14-2.59,10.8-3.56,4.28-1.13,8.5-2.91,12.55-4.69,3.15-1.38,1.74-3.24,3.12-5.51.67-1.1,2.01-1.42,2.91-2.26,1.63-1.53.46-1.68.44-3.33-.02-1.69,1.04-2.89,1.53-4.45.58-1.84.66-3.83.53-5.75-.2-2.98-.9-5.91-.97-8.9-.09-4.21,1.07-8.33,2.21-12.38.16-.55.4-1.19.95-1.34,1.53-.41,1.76,3.17,3.3,2.81.34-.08.6-.37.78-.67.62-1.01,1.09-2.62,2.26-2.4.26.05.5.2.76.22,1.27.12,1.17-2.19,2.31-2.77.28-.14.6-.16.91-.14,3.24.14,5.62,3.18,6.7,6.24,1.08,3.06,1.36,6.4,2.85,9.28.57,1.1,1.4,2.18,2.59,2.49.41.11.85.12,1.23.31,1.15.57,1.06,2.26,1.84,3.28.61.81,1.67,1.09,2.6,1.48,1.72.71,3.24,1.91,4.32,3.43.36.5.67,1.04.82,1.63.26,1,.06,2.07-.37,3.01-1.28,2.8-4.37,4.39-5.8,7.11-.29.56-.54,1.19-1.09,1.51-.54.32-1.46-.02-1.38-.64-.74.02-1.23.8-1.38,1.52-.14.73-.09,1.5-.38,2.18-.3.68-1.17,1.2-1.78.77-.46-.33-.5-1-.86-1.44-.55-.68-1.86-.42-2.1.42-.17.57.1,1.16.27,1.73.61,1.97.14,4.17-.92,5.95-1.06,1.78-2.64,3.18-4.33,4.37-.79.56-1.64,1.12-2.02,2.01-.39.91-.18,1.95-.36,2.92-.35,1.84-2.02,3.17-2.53,4.97-.43,1.52-.06,3.12-.31,4.67-.19,1.17-1.22,2.9.25,3.73.52.3,1.28.3,1.55.83.39.75-.62,1.49-.76,2.33-.15.94.8,1.64,1.42,2.36,1.47,1.7,1.36,4.33,2.73,6.1,1.41,1.83,4.35,2.21,6.18.8.38-.29.73-.68.82-1.15.33-1.65-2.43-2.68-2.17-4.34.13-.84.98-1.35,1.75-1.73.25-.12.53-.25.79-.15.23.09.35.33.46.55.45.95.91,1.89,1.36,2.84.31.65.63,1.33.59,2.05-.06,1.05-.85,1.88-1.59,2.62-1,1-2,1.99-3,2.99-.4.4-1.01.82-1.47.51-.32-.22-.4-.69-.74-.87-.43-.23-.94.18-1.11.63s-.17.96-.4,1.38c-.93,1.68-4.04.16-5.23,1.67-.5.64-.41,1.54-.49,2.35-.43,4.23-6.33,5.1-9.35,6.87-1.88,1.1,3.86,2.82,2.21,4.25-1.8,1.57-9.86,1.8-12.42,4.79-2.25,2.63-3.83,6.2-3.04,9.57.05.23.14.47.35.58.33.16.67-.14,1-.3,1.08-.53,2.34.64,2.44,1.83.1,1.2-.52,2.32-1,3.42-2.56,5.86-1.35,12.97-4.46,18.56-.1.18-.22.37-.41.45-.63.26-.92-.76-.99-1.44-.22-2-2.39-3.55-4.35-3.1-.23.05-.47.14-.63.32-.15.18-.2.43-.21.67-.11,1.53.66,3.02,1.74,4.12,1.07,1.1,2.43,1.87,3.76,2.62,1.27.72.48,1.65.54,3.11.26,6.6-1,13.25-3.66,19.3-1.29-1.91-1.33-4.59-.09-6.54.57-.89,1.37-2.12.59-2.84-.88-.83-2.47.42-3.47-.25-1.44-.96.51-4.07-1.11-4.68-.35-.13-.74-.05-1.12-.07-1.4-.04-2.51-1.63-2.08-2.96.12-.36.33-.72.25-1.09-.16-.71-1.13-.75-1.82-.97-1.57-.52-2.05-2.55-1.74-4.17.31-1.62,1.16-3.13,1.26-4.77.03-.54-.2-1.26-.74-1.21-.33.03-.54.35-.7.64-1.58,2.84-3.18,6.3-1.69,9.19.64,1.25,1.84,2.29,1.95,3.69.06.76-.2,1.62.23,2.25.68.99,2.66.83,2.77,2.02.06.76-.8,1.26-1.02,1.99-.34,1.09.81,2.01,1.69,2.75.87.74,1.5,2.33.49,2.86-1.08.56-2.62-1-3.46-.13-.56.59.02,1.61.76,1.92.75.32,1.62.27,2.35.63.73.36,1.2,1.46.56,1.96-.22.17-.52.22-.72.41-.56.53.11,1.43.75,1.85.61.4,1.28.79,1.63,1.43.35.64.2,1.62-.49,1.86-.99.35-2.39-.91-2.95-.03-.11.17-.13.39-.11.6.12,1.05,1.32,1.66,2.38,1.63,1.06-.04,2.04-.51,3.08-.75s2.27-.15,2.93.67c1.63.29,2.15,1.86,1.73,3.45-.11.41-.3.8-.3,1.22,0,.82.7,1.43,1.18,2.09.48.66.65,1.78-.09,2.14-.32.15-.71.09-1.02.27-.72.42-.56,1.45-1.36,1.9-.69.39-1.55-.53-2.14.52-1.49,2.63-2.85-2.29-3.33.95-.17,1.12.52,3.64,1.94,3.4,1.51-.26,1.47-2.73,3.82-2.01.72.22,1.34.79,2.09.86,1.11.1,2-.91,2.5-1.9.18-.36.39-.78.78-.89.71-.2,1.19.72,1.29,1.46.35,2.68-.38,5.48-1.99,7.64-.64.86-1.77,1.69-2.71,1.17-.44-.24-.7-.73-1.1-1.03-1.12-.86-3.05.46-2.65,1.81.06.2.15.39.14.6-.08,1.2-2.73.14-2.97,1.32-.12.57.6.98,1.19.95.59-.03,1.17-.28,1.74-.13.95.25,1.29,1.58.78,2.42-.5.85-1.55,1.23-2.53,1.28-.33.02-.67,0-.96.16-.96.52-.14,2.17.95,2.21,1.09.04,1.97-.79,2.8-1.5.83-.71,1.95-1.36,2.94-.93.56.24.35.37.27.97-.09.6-.43,1.14-.49,1.75-.03.3.01.61-.08.89-.15.45-.62.73-1.09.83s-.95.05-1.43.06c-2.2.07-4.17,1.49-5.45,3.28-1.75,2.46-3.89,5.54-4.36,8.57-.1.64-.13,1.3-.38,1.9-.38.91-1.23,1.55-2.11,1.98-.89.44-1.85.72-2.72,1.17-1.34.7-2.46,1.83-3.16,3.17-3.33,2.1-3.34,6.86-5.8,9.93-.29.36-.62.72-.76,1.16-.14.44-.07.91-.11,1.37-.19,1.88-2.14,2.99-3.26,4.51-.41.56-.71,1.19-.93,1.85-.15.44-.26.9-.48,1.31-.72,1.3-2.4,1.77-3.3,2.96-.46.61-.72,1.4-1.35,1.81-.9.57-2.34.26-2.88,1.18-.33.56-.23,1.45-.83,1.67-.48.17-1-.28-1.5-.15-.59.15-.68.97-.5,1.56.18.59.5,1.2.28,1.77-.12.32-.4.55-.53.86-.17.39-.11.84-.09,1.27.07,1.6-.7,2.35-1.23,3.67-.66,1.67-.8,3.76-1,5.53-.43,3.78-.37,7.62.19,11.38.11.77.25,1.56.14,2.33-.17,1.26-.96,2.33-1.48,3.49-.81,1.79-.85,3.65-.51,5.55.05.28.21,1.74.5,1.89,1.92,1.01,1.27-2.79,1.21-3.45-.08-.93-.68-3.76.38-4.36,1.88-1.05,2.07,3.9,2.25,4.75.57,2.66,2.06,5.02,3.53,7.31,2.78,4.35,5.57,8.7,8.68,12.81.27.36.39,1.08-.06,1.08-.16,0-.28-.12-.39-.23-.53-.54-1.07-1.08-1.6-1.62-.59.56-.52,1.54-.12,2.24.4.7,1.06,1.21,1.64,1.78,1.13,1.12,1.94,2.52,2.74,3.9,1.09,1.88,2.17,3.76,3.26,5.64.71,1.23,1.43,2.48,1.81,3.86.22.81.32,1.64.57,2.44.86,2.67,3.5,5.13,2.54,7.76-2.31,6.32-.2,12.48-.99,19.15-.09.73-.18,1.48-.56,2.11-.47.79-1.31,1.28-2.12,1.74-.72.41-1.45.82-2.17,1.22-.6.34-1.25.69-1.94.62-.69-.07-1.34-.78-1.08-1.42.38-.96,2.13-1.12,1.46-2.17-.15-.23-1.78-.56-2.11-.74-.85-.45-1.59-1.15-2.3-1.79-1.84-1.65-3.67-3.31-5.51-4.96-.56-.5-1.14-1.04-1.4-1.75-.33-.91-.1-2.02-.72-2.77-.77-.92-2.53-.84-2.88-1.99-.22-.73.31-1.59-.05-2.26-.41-.77-1.6-.64-2.26-1.22-.89-.78-.66-2.65-1.82-2.87-.77-.15-1.44.68-2.22.61-.5-.04-.89-.44-1.23-.81-1.91-2.1-3.97-4.79-3.11-7.5.19-.6.53-1.16.6-1.79.12-.98-.7-2.49-1.83-2.39-.77.06-1.02,1.26-1.98,1.28-1.45.03-1.69-1.46-1.8-2.61-.27-2.79.9-5.52.89-8.24,0-3.95-2.47-7.8-6.06-9.45-1.79-.82-3.96-1.26-5.02-2.91-.51-.8-.68-1.78-1.11-2.62-1.21-2.35-4.12-3.13-6.71-3.67-1.14-.24-2.7-.27-3.08.83-.27.77.24,1.72-.22,2.38-.19.28-.51.43-.82.58-2.52,1.18-5.03,2.37-7.55,3.55-.32.15-.68.31-1.02.2-.79-.23-.66-1.44-1.22-2.05-.75-.81-2.27-.13-3.13-.82-.52-.42-.62-1.19-1.07-1.68-.32-.35-.79-.52-1.24-.66-5.19-1.68-10.78-2.11-16.17-1.23-.39.06-.79.14-1.12.36-.45.31-.67.84-.95,1.31-1.03,1.73-3.1,2.78-5.1,2.58-2.4-.24-3.19-3.3-5.48-2.05-2.65,1.46-4.08,3.41-7.55,2.74-1.14-.22-2.43.16-3.39.82-.96.66-1.8,1.51-2.84,2.03-1.12.56-2.4.71-3.65.69-1.72-.02-3.44-.33-5.06-.91-1.67-.59-3.66-1.43-5.05-.34-1.4,1.1-.85,3.62.73,4.44,1.58.82,3.61.22,4.92-.98.54-.5,1.3-1.14,1.91-.71.73.52.04,1.79.52,2.55.34.53,1.13.56,1.7.3s1.01-.73,1.54-1.08c1.01-.67,2.46-.81,3.41-.04.95.77.98,2.51-.09,3.09-.43.24-.94.26-1.41.41-1,.34-1.72,1.36-1.7,2.42.02,1.05.78,2.05,1.79,2.35.57.17,1.18.13,1.77.24,1.34.24,2.5,1.32,2.84,2.64.34,1.32-.15,2.82-1.21,3.68-.21.17-.45.32-.72.36-.99.13-1.43-1.15-1.94-2-1.48-2.46-5.37-2.18-7.24-4.35-.67-.78-1.04-1.82-1.86-2.43-.83-.61-2.4-.27-2.33.76.06.91,1.22,1.19,2.01,1.64,1.29.75,1.79,2.47,1.39,3.91-.4,1.43-1.53,2.57-2.82,3.31-.26.15-.56.29-.85.2-.36-.11-.53-.52-.79-.8-.74-.82-2.12-.48-3.03.16s-1.7,1.54-2.79,1.74c-1.83.34-3.39-1.53-3.75-3.36-.36-1.83.03-3.74-.27-5.58-.24-1.53-1.53-3.38-2.8-4.26-.34-.23-.88-.23-1.1.12-.12.19-.12.43-.11.65.01.33.03.66.14.97.27.78,1.01,1.26,1.61,1.83.59.57,1.09,1.46.7,2.18-1.03,1.92-4.11-1.6-5.74-1.52-.23.01-.47.05-.7-.02-3.7-1.19-1.96,1-3.61,2.84-1.51,1.69-7.06.65-9,.25-1.41-.3-2.77-.79-4.19-1-5.07-.75-9.9,2.08-14.33,4.67-.55.32-1.77,1.02-2.41.51-.63-.51.26-1.49-.26-2.07-.36-.4-1.15-.05-1.48-.47-.24-.3-.05-.74.08-1.1s.06-.92-.32-.94c-.17-.01-.33.1-.46.21-1.05.85-2.17,1.79-2.5,3.1-.34,1.35.22,2.87-.39,4.12-.41.85-1.28,1.38-1.86,2.13-.84,1.08-1.03,2.52-1.65,3.73-.86,1.68-2.52,2.85-4.32,3.39-1.8.54-3.74.51-5.6.22-.85-.13-1.9-.3-2.68.06-.78.36-1.24,1.49-.64,2.1.16.16.38.28.45.49.11.31-.15.62-.39.85-.87.84-2.35,1.68-3.14.75-.18-.21-.3-.51-.56-.61-.58-.22-.91.74-.64,1.3.27.56.79,1.1.63,1.71-.09.34-.37.58-.64.8-.73.6-1.47,1.2-2.2,1.8-.41.34-.99.69-1.44.41-.42-.26-.45-.93-.89-1.16-.52-.27-1.12.37-1.08.96.04.58.46,1.06.79,1.54.34.48.62,1.1.38,1.63-.37.8-1.5.72-2.37.78-.88.06-1.9,1.05-1.26,1.65.2.18.48.23.72.34.91.42,1.08,1.74.58,2.6-.51.86-1.46,1.35-2.4,1.71-.42.16-.91.37-1,.81-.16.8.99,1.06,1.71,1.44,1.04.54,1.39,2.08.69,3.02-.47.62-1.3,1.01-1.47,1.77-.09.41.04.84.18,1.24.8,2.4,1.61,4.8,2.41,7.2.39,1.16.03,4.06.97,4.82.44.36,1.02.49,1.52.76.5.28.94.84.76,1.37-.58,1.76-3.46.56-5.23.04-2.73-.8-5.45-1.59-8.18-2.39-3.33-.97-6.69-1.96-9.77-3.58-1.62-.86-3.34-2.23-3.24-4.06.03-.56.24-1.11.17-1.66-.12-1.03-1.1-1.7-1.87-2.4-1.48-1.34-2.42-3.26-2.58-5.25-.16-1.96.33-4.2-.95-5.7-.76-.89-1.96-1.26-2.92-1.92-2.5-1.71-3.14-5.09-5.02-7.46-.91-1.15-2.1-2.05-2.96-3.24-1.82-2.53-1.92-6.08-3.99-8.41-1.68-1.89-4.45-2.72-5.69-4.92-.59-1.05-.78-2.34-1.61-3.22-.91-.97-2.35-1.18-3.68-1.34-1.41-.17-2.83-.34-4.24-.5-.92-.11-1.92-.2-2.71.29-.71.44-1.11,1.28-1.8,1.74-1,.66-2.42.45-3.37,1.18-1.68,1.29-.65,4.4-2.28,5.77-.36-.75-1.55-.33-2.04.34-.49.67-.89,1.58-1.71,1.71-.74.11-1.36-.49-1.9-1.01-2.17-2.09-4.97-3.52-7.94-4.05-.72-.13-1.48-.22-2.05-.68-1.35-1.09-.77-3.44-1.94-4.72-1.8-1.98-4.22-1.71-4.43-5.08-.09-1.52.18-3.09-.32-4.53-.76-2.18-3.15-3.58-3.58-5.84-.11-.6-.08-1.22-.28-1.8-.61-1.78-2.88-2.16-4.56-2.99-1.72-.85-3.04-2.46-3.56-4.3-.45-1.62-.64-3.8-2.27-4.19-.48-.11-1-.02-1.47-.17-1.5-.46-1.2-2.26-2.03-3.25-.92-1.11-1.72-.86-3.16-1.03Z"/>
  </g>
  <circle class="cls-5" cx="38.96" cy="236.7" r="5.37"/>
  <circle class="cls-5" cx="490.3" cy="350.64" r="5.37"/>
  <circle class="cls-5" cx="555.09" cy="380.6" r="5.37"/>
  <circle class="cls-6" cx="54.67" cy="225.59" r="5.37"/>
  <circle class="cls-5" cx="28.69" cy="226.88" r="5.37"/>
  <circle class="cls-5" cx="21.83" cy="173.78" r="5.37"/>
  <circle class="cls-5" cx="21.83" cy="161.4" r="5.37"/>
  <circle class="cls-5" cx="197.87" cy="188.96" r="5.37"/>
  <circle class="cls-5" cx="10.72" cy="153.05" r="5.37"/>
  <path class="cls-4" d="M556.11,365.31s0,0,0,.01h0Z"/>
  <path class="cls-4" d="M556.84,360.64l-.7.72.71-.7s0-.02-.01-.02Z"/>
  <path class="cls-4" d="M551.66,384.67s0,.01,0,.02v-.02Z"/>
  <path class="cls-4" d="M552.69,378.11l-.98,1.01,1-.98s-.01-.02-.02-.03Z"/>
  <path class="cls-4" d="M527.56,355.89s0,0,0,.01c0,0,0-.01,0-.01Z"/>
</svg>